<svg width="56" height="56" viewBox="0 0 56 56" fill="none" xmlns="http://www.w3.org/2000/svg">
<path d="M41.7637 39.0953L9.625 33.2503V19.2503L41.7637 13.4053V39.0953Z" stroke="white" stroke-width="2" stroke-linecap="round" stroke-linejoin="round"/>
<path d="M14.875 18.375V40.4688C14.8765 41.4762 15.2394 42.4497 15.8977 43.2124C16.556 43.9751 17.4661 44.4763 18.4625 44.625H20.5625M9.625 21V31.5C8.46468 31.5 7.35188 31.0391 6.53141 30.2186C5.71094 29.3981 5.25 28.2853 5.25 27.125V25.375C5.25 24.2147 5.71094 23.1019 6.53141 22.2814C7.35188 21.4609 8.46468 21 9.625 21Z" stroke="white" stroke-width="2" stroke-linecap="round" stroke-linejoin="round"/>
<path d="M47.25 26.25H50.75" stroke="white" stroke-width="2" stroke-linecap="round" stroke-linejoin="round"/>
<path d="M46.76 22.0938L49.49 19.9062" stroke="white" stroke-width="2" stroke-linecap="round" stroke-linejoin="round"/>
<path d="M49.49 32.5938L46.76 30.4062" stroke="white" stroke-width="2" stroke-linecap="round" stroke-linejoin="round"/>
</svg>
