<svg width="24" height="24" viewBox="0 0 24 24" fill="none" xmlns="http://www.w3.org/2000/svg">
<path d="M12.5 1C13.8792 1 15 2.15586 15 3.57812V20.4219C15 21.8441 13.8792 23 12.5 23C11.1208 23 10 21.8441 10 20.4219V3.57812C10 2.15586 11.1208 1 12.5 1Z" stroke="#9CA3AF" stroke-width="1.5"/>
<path d="M7 11.4612C7 10.1034 5.87917 9 4.5 9C3.11667 9 2 10.0993 2 11.4612V20.5388C2 21.8966 3.12083 23 4.5 23C5.87917 23 7 21.8966 7 20.5388V11.4612Z" stroke="#9CA3AF" stroke-width="1.5"/>
<path d="M23 17.4605C23 16.1031 21.8792 15 20.5 15C19.1208 15 18 16.1031 18 17.4605V20.5395C18 21.8969 19.1208 23 20.5 23C21.8792 23 23 21.8969 23 20.5395V17.4605Z" stroke="#9CA3AF" stroke-width="1.5"/>
</svg>
