<svg width="26" height="26" viewBox="0 0 26 26" fill="none" xmlns="http://www.w3.org/2000/svg">
<path d="M20.2947 24.9317C19.4408 25.5702 13.9622 21.5225 12.9129 21.5136C11.8637 21.5048 6.32336 25.4594 5.47948 24.8065C4.6356 24.1536 6.61952 17.4476 6.30336 16.4001C5.9872 15.3526 0.682697 11.058 1.01497 10.0159C1.34733 8.97388 8.05207 8.8771 8.90591 8.23854C9.75975 7.60006 12.0217 0.991189 13.0711 1.00001C14.1203 1.00891 16.2801 7.65513 17.124 8.30803C17.9679 8.96085 24.6703 9.17099 24.9866 10.2185C25.3027 11.266 19.9328 15.4704 19.6005 16.5124C19.2682 17.5545 21.1485 24.2931 20.2947 24.9317Z" fill="url(#paint0_linear_1302_11331)" stroke="#118DE7" stroke-width="0.2"/>
<defs>
<linearGradient id="paint0_linear_1302_11331" x1="13" y1="1" x2="13" y2="29.5" gradientUnits="userSpaceOnUse">
<stop stop-color="#01E5D4"/>
<stop offset="0.83" stop-color="#137AEA"/>
</linearGradient>
</defs>
</svg>
