<svg width="18" height="18" viewBox="0 0 18 18" fill="none" xmlns="http://www.w3.org/2000/svg">
<g clip-path="url(#clip0_3000_9095)">
<path fill-rule="evenodd" clip-rule="evenodd" d="M14.6511 5.65096C14.6511 5.04034 14.4086 4.45474 13.9768 4.02297C13.545 3.5912 12.9594 3.34863 12.3488 3.34863H5.65114C5.04053 3.34863 4.45492 3.5912 4.02315 4.02297C3.59138 4.45474 3.34882 5.04034 3.34882 5.65096V12.3486C3.34882 12.9593 3.59138 13.5449 4.02315 13.9766C4.45492 14.4084 5.04053 14.651 5.65114 14.651H12.3488C12.9594 14.651 13.545 14.4084 13.9768 13.9766C14.4086 13.5449 14.6511 12.9593 14.6511 12.3486V5.65096ZM10.6744 7.32538V10.6742C10.6744 10.8407 10.7406 11.0005 10.8583 11.1182C10.9761 11.236 11.1358 11.3021 11.3023 11.3021C11.4688 11.3021 11.6285 11.236 11.7463 11.1182C11.8641 11.0005 11.9302 10.8407 11.9302 10.6742V7.32538C11.9302 7.15885 11.8641 6.99914 11.7463 6.88138C11.6285 6.76363 11.4688 6.69747 11.3023 6.69747C11.1358 6.69747 10.9761 6.76363 10.8583 6.88138C10.7406 6.99914 10.6744 7.15885 10.6744 7.32538ZM9.83719 10.6742V8.16259C9.83719 7.77401 9.68283 7.40136 9.40807 7.12659C9.13331 6.85183 8.76065 6.69747 8.37207 6.69747H7.53486C7.14629 6.69747 6.77363 6.85183 6.49887 7.12659C6.22411 7.40136 6.06975 7.77401 6.06975 8.16259V10.6742C6.06975 10.8407 6.1359 11.0005 6.25366 11.1182C6.37141 11.236 6.53112 11.3021 6.69765 11.3021C6.86419 11.3021 7.0239 11.236 7.14165 11.1182C7.25941 11.0005 7.32556 10.8407 7.32556 10.6742V10.0463H8.58138V10.6742C8.58138 10.8407 8.64753 11.0005 8.76529 11.1182C8.88304 11.236 9.04275 11.3021 9.20928 11.3021C9.37581 11.3021 9.53553 11.236 9.65328 11.1182C9.77104 11.0005 9.83719 10.8407 9.83719 10.6742ZM7.32556 8.7905H8.58138V8.16259C8.58138 8.10708 8.55932 8.05384 8.52007 8.01459C8.48082 7.97534 8.42758 7.95329 8.37207 7.95329H7.53486C7.47935 7.95329 7.42612 7.97534 7.38686 8.01459C7.34761 8.05384 7.32556 8.10708 7.32556 8.16259V8.7905Z" fill="white"/>
<path fill-rule="evenodd" clip-rule="evenodd" d="M14.0233 9.62791H17.3721C17.5386 9.62791 17.6983 9.56175 17.8161 9.444C17.9338 9.32624 18 9.16653 18 9C18 8.83347 17.9338 8.67376 17.8161 8.556C17.6983 8.43825 17.5386 8.37209 17.3721 8.37209H14.0233C13.8567 8.37209 13.697 8.43825 13.5793 8.556C13.4615 8.67376 13.3953 8.83347 13.3953 9C13.3953 9.16653 13.4615 9.32624 13.5793 9.444C13.697 9.56175 13.8567 9.62791 14.0233 9.62791ZM9.62791 3.97674V0.627907C9.62791 0.461376 9.56175 0.301665 9.444 0.18391C9.32624 0.0661543 9.16653 0 9 0C8.83347 0 8.67376 0.0661543 8.556 0.18391C8.43825 0.301665 8.37209 0.461376 8.37209 0.627907V3.97674C8.37209 4.14328 8.43825 4.30299 8.556 4.42074C8.67376 4.5385 8.83347 4.60465 9 4.60465C9.16653 4.60465 9.32624 4.5385 9.444 4.42074C9.56175 4.30299 9.62791 4.14328 9.62791 3.97674ZM8.37209 14.0233V17.3721C8.37209 17.5386 8.43825 17.6983 8.556 17.8161C8.67376 17.9338 8.83347 18 9 18C9.16653 18 9.32624 17.9338 9.444 17.8161C9.56175 17.6983 9.62791 17.5386 9.62791 17.3721V14.0233C9.62791 13.8567 9.56175 13.697 9.444 13.5793C9.32624 13.4615 9.16653 13.3953 9 13.3953C8.83347 13.3953 8.67376 13.4615 8.556 13.5793C8.43825 13.697 8.37209 13.8567 8.37209 14.0233ZM3.97674 8.37209H0.627907C0.461376 8.37209 0.301665 8.43825 0.18391 8.556C0.0661543 8.67376 0 8.83347 0 9C0 9.16653 0.0661543 9.32624 0.18391 9.444C0.301665 9.56175 0.461376 9.62791 0.627907 9.62791H3.97674C4.14328 9.62791 4.30299 9.56175 4.42074 9.444C4.5385 9.32624 4.60465 9.16653 4.60465 9C4.60465 8.83347 4.5385 8.67376 4.42074 8.556C4.30299 8.43825 4.14328 8.37209 3.97674 8.37209ZM14.0233 7.11628H16.1163C16.2828 7.11628 16.4425 7.05012 16.5603 6.93237C16.678 6.81461 16.7442 6.6549 16.7442 6.48837C16.7442 6.32184 16.678 6.16213 16.5603 6.04437C16.4425 5.92662 16.2828 5.86047 16.1163 5.86047H14.0233C13.8567 5.86047 13.697 5.92662 13.5793 6.04437C13.4615 6.16213 13.3953 6.32184 13.3953 6.48837C13.3953 6.6549 13.4615 6.81461 13.5793 6.93237C13.697 7.05012 13.8567 7.11628 14.0233 7.11628ZM7.11628 3.97674V1.88372C7.11628 1.71719 7.05012 1.55748 6.93237 1.43972C6.81461 1.32197 6.6549 1.25581 6.48837 1.25581C6.32184 1.25581 6.16213 1.32197 6.04437 1.43972C5.92662 1.55748 5.86047 1.71719 5.86047 1.88372V3.97674C5.86047 4.14328 5.92662 4.30299 6.04437 4.42074C6.16213 4.5385 6.32184 4.60465 6.48837 4.60465C6.6549 4.60465 6.81461 4.5385 6.93237 4.42074C7.05012 4.30299 7.11628 4.14328 7.11628 3.97674ZM5.86047 14.0233V16.1163C5.86047 16.2828 5.92662 16.4425 6.04437 16.5603C6.16213 16.678 6.32184 16.7442 6.48837 16.7442C6.6549 16.7442 6.81461 16.678 6.93237 16.5603C7.05012 16.4425 7.11628 16.2828 7.11628 16.1163V14.0233C7.11628 13.8567 7.05012 13.697 6.93237 13.5793C6.81461 13.4615 6.6549 13.3953 6.48837 13.3953C6.32184 13.3953 6.16213 13.4615 6.04437 13.5793C5.92662 13.697 5.86047 13.8567 5.86047 14.0233ZM3.97674 5.86047H1.88372C1.71719 5.86047 1.55748 5.92662 1.43972 6.04437C1.32197 6.16213 1.25581 6.32184 1.25581 6.48837C1.25581 6.6549 1.32197 6.81461 1.43972 6.93237C1.55748 7.05012 1.71719 7.11628 1.88372 7.11628H3.97674C4.14328 7.11628 4.30299 7.05012 4.42074 6.93237C4.5385 6.81461 4.60465 6.6549 4.60465 6.48837C4.60465 6.32184 4.5385 6.16213 4.42074 6.04437C4.30299 5.92662 4.14328 5.86047 3.97674 5.86047ZM14.0233 12.1395H16.1163C16.2828 12.1395 16.4425 12.0734 16.5603 11.9556C16.678 11.8379 16.7442 11.6782 16.7442 11.5116C16.7442 11.3451 16.678 11.1854 16.5603 11.0676C16.4425 10.9499 16.2828 10.8837 16.1163 10.8837H14.0233C13.8567 10.8837 13.697 10.9499 13.5793 11.0676C13.4615 11.1854 13.3953 11.3451 13.3953 11.5116C13.3953 11.6782 13.4615 11.8379 13.5793 11.9556C13.697 12.0734 13.8567 12.1395 14.0233 12.1395ZM12.1395 3.97674V1.88372C12.1395 1.71719 12.0734 1.55748 11.9556 1.43972C11.8379 1.32197 11.6782 1.25581 11.5116 1.25581C11.3451 1.25581 11.1854 1.32197 11.0676 1.43972C10.9499 1.55748 10.8837 1.71719 10.8837 1.88372V3.97674C10.8837 4.14328 10.9499 4.30299 11.0676 4.42074C11.1854 4.5385 11.3451 4.60465 11.5116 4.60465C11.6782 4.60465 11.8379 4.5385 11.9556 4.42074C12.0734 4.30299 12.1395 4.14328 12.1395 3.97674ZM10.8837 14.0233V16.1163C10.8837 16.2828 10.9499 16.4425 11.0676 16.5603C11.1854 16.678 11.3451 16.7442 11.5116 16.7442C11.6782 16.7442 11.8379 16.678 11.9556 16.5603C12.0734 16.4425 12.1395 16.2828 12.1395 16.1163V14.0233C12.1395 13.8567 12.0734 13.697 11.9556 13.5793C11.8379 13.4615 11.6782 13.3953 11.5116 13.3953C11.3451 13.3953 11.1854 13.4615 11.0676 13.5793C10.9499 13.697 10.8837 13.8567 10.8837 14.0233ZM3.97674 10.8837H1.88372C1.71719 10.8837 1.55748 10.9499 1.43972 11.0676C1.32197 11.1854 1.25581 11.3451 1.25581 11.5116C1.25581 11.6782 1.32197 11.8379 1.43972 11.9556C1.55748 12.0734 1.71719 12.1395 1.88372 12.1395H3.97674C4.14328 12.1395 4.30299 12.0734 4.42074 11.9556C4.5385 11.8379 4.60465 11.6782 4.60465 11.5116C4.60465 11.3451 4.5385 11.1854 4.42074 11.0676C4.30299 10.9499 4.14328 10.8837 3.97674 10.8837Z" fill="white"/>
</g>
<defs>
<clipPath id="clip0_3000_9095">
<rect width="18" height="18" fill="white"/>
</clipPath>
</defs>
</svg>
