<svg width="70" height="70" viewBox="0 0 70 70" fill="none" xmlns="http://www.w3.org/2000/svg">
<g clip-path="url(#clip0_1302_10625)">
<path d="M55.2067 0H14.7933C6.6232 0 0 6.62316 0 14.7933V55.2066C0 63.3767 6.6232 70.0001 14.7933 70.0001H55.2067C63.3768 70.0001 70 63.3767 70 55.2066V14.7933C70 6.62316 63.3768 0 55.2067 0Z" fill="url(#paint0_linear_1302_10625)"/>
<path d="M22.4973 11.6661C22.3879 11.6679 22.2799 11.6911 22.1794 11.7346C22.079 11.7781 21.9881 11.841 21.9119 11.9196C21.8358 11.9982 21.7759 12.0911 21.7356 12.1929C21.6954 12.2946 21.6756 12.4033 21.6773 12.5128V14.9995H14.1673C13.9463 14.9995 13.7343 15.0872 13.5781 15.2435C13.4218 15.3998 13.334 15.6118 13.334 15.8328V23.3329H15.0007V16.6661H21.6773V18.4861C20.7106 18.8344 20.0107 19.7545 20.0107 20.8328C20.0107 22.2045 21.139 23.3329 22.5106 23.3329C23.8807 23.3329 25.0106 22.2045 25.0106 20.8328C25.0106 19.7545 24.309 18.8328 23.344 18.4861V16.6661H48.344V18.4861C47.3773 18.8344 46.6773 19.7545 46.6773 20.8328C46.6773 22.2045 47.8057 23.3329 49.1773 23.3329C50.5473 23.3329 51.6773 22.2045 51.6773 20.8328C51.6773 19.7545 50.9757 18.8328 50.0107 18.4861V16.6661H56.6873V23.3329H58.354V15.8328C58.354 15.6118 58.2662 15.3998 58.1099 15.2435C57.9536 15.0872 57.7417 14.9995 57.5207 14.9995H50.0107V12.5128C50.0125 12.4011 49.9918 12.2902 49.9499 12.1867C49.908 12.0831 49.8457 11.989 49.7667 11.9101C49.6877 11.8311 49.5936 11.7688 49.4901 11.7269C49.3866 11.6849 49.2757 11.6643 49.164 11.6661C49.0545 11.6679 48.9465 11.6911 48.8461 11.7346C48.7456 11.7781 48.6547 11.841 48.5786 11.9196C48.5025 11.9982 48.4425 12.0911 48.4023 12.1929C48.362 12.2946 48.3422 12.4033 48.344 12.5128V14.9995H23.344V12.5128C23.3458 12.4011 23.3251 12.2902 23.2832 12.1867C23.2413 12.0831 23.179 11.989 23.1 11.9101C23.021 11.8311 22.927 11.7688 22.8234 11.7269C22.7199 11.6849 22.609 11.6643 22.4973 11.6661ZM22.419 20.0161C22.4788 20.0226 22.5392 20.0226 22.599 20.0161C22.8034 20.033 22.9938 20.1265 23.132 20.278C23.2702 20.4295 23.3459 20.6277 23.344 20.8328C23.344 21.3028 22.9806 21.6661 22.5106 21.6661C22.4008 21.6677 22.2917 21.6472 22.1899 21.6059C22.0881 21.5646 21.9956 21.5032 21.9179 21.4255C21.8402 21.3478 21.7789 21.2553 21.7376 21.1535C21.6962 21.0517 21.6757 20.9427 21.6773 20.8328C21.6773 20.3961 21.9973 20.0611 22.419 20.0161ZM49.0857 20.0161C49.1455 20.0226 49.2058 20.0226 49.2657 20.0161C49.47 20.033 49.6605 20.1265 49.7987 20.278C49.9369 20.4295 50.0126 20.6277 50.0107 20.8328C50.0107 21.3028 49.6473 21.6661 49.1773 21.6661C49.0674 21.6677 48.9584 21.6472 48.8566 21.6059C48.7547 21.5646 48.6623 21.5032 48.5846 21.4255C48.5069 21.3478 48.4455 21.2553 48.4042 21.1535C48.3629 21.0517 48.3424 20.9427 48.344 20.8328C48.344 20.3961 48.664 20.0611 49.0857 20.0161ZM14.1773 24.9996C13.9563 24.9996 13.7443 25.0872 13.5881 25.2435C13.4318 25.3998 13.344 25.6119 13.344 25.8329V55.8329C13.344 56.0539 13.4318 56.2658 13.5881 56.4221C13.7443 56.5784 13.9563 56.6662 14.1773 56.6662H57.5107C57.7317 56.6662 57.9436 56.5784 58.0999 56.4221C58.2562 56.2658 58.344 56.0539 58.344 55.8329V25.8329C58.344 25.6119 58.2562 25.3998 58.0999 25.2435C57.9436 25.0872 57.7317 24.9996 57.5107 24.9996H14.1773ZM15.0107 26.6662H56.6773V54.9996H15.0107V26.6662ZM30.844 28.3329C30.623 28.3329 30.411 28.4205 30.2547 28.5768C30.0984 28.7331 30.0107 28.9452 30.0107 29.1662V32.4996C30.0107 32.7206 30.0984 32.9325 30.2547 33.0888C30.411 33.245 30.623 33.3329 30.844 33.3329H34.1773C34.3983 33.3329 34.6103 33.245 34.7666 33.0888C34.9229 32.9325 35.0107 32.7206 35.0107 32.4996V29.1662C35.0107 28.9452 34.9229 28.7331 34.7666 28.5768C34.6103 28.4205 34.3983 28.3329 34.1773 28.3329H30.844ZM37.5107 28.3329C37.2896 28.3329 37.0777 28.4205 36.9214 28.5768C36.7651 28.7331 36.6773 28.9452 36.6773 29.1662V32.4996C36.6773 32.7206 36.7651 32.9325 36.9214 33.0888C37.0777 33.245 37.2896 33.3329 37.5107 33.3329H40.844C41.065 33.3329 41.277 33.245 41.4332 33.0888C41.5895 32.9325 41.6773 32.7206 41.6773 32.4996V29.1662C41.6773 28.9452 41.5895 28.7331 41.4332 28.5768C41.277 28.4205 41.065 28.3329 40.844 28.3329H37.5107ZM44.1773 28.3329C43.9563 28.3329 43.7443 28.4205 43.5881 28.5768C43.4318 28.7331 43.344 28.9452 43.344 29.1662V32.4996C43.344 32.7206 43.4318 32.9325 43.5881 33.0888C43.7443 33.245 43.9563 33.3329 44.1773 33.3329H47.5107C47.7317 33.3329 47.9436 33.245 48.0999 33.0888C48.2562 32.9325 48.344 32.7206 48.344 32.4996V29.1662C48.344 28.9452 48.2562 28.7331 48.0999 28.5768C47.9436 28.4205 47.7317 28.3329 47.5107 28.3329H44.1773ZM50.844 28.3329C50.623 28.3329 50.411 28.4205 50.2547 28.5768C50.0984 28.7331 50.0107 28.9452 50.0107 29.1662V32.4996C50.0107 32.7206 50.0984 32.9325 50.2547 33.0888C50.411 33.245 50.623 33.3329 50.844 33.3329H54.1773C54.3983 33.3329 54.6103 33.245 54.7666 33.0888C54.9229 32.9325 55.0107 32.7206 55.0107 32.4996V29.1662C55.0107 28.9452 54.9229 28.7331 54.7666 28.5768C54.6103 28.4205 54.3983 28.3329 54.1773 28.3329H50.844ZM27.4873 29.4728C27.2715 29.4777 27.0659 29.566 26.914 29.7194L25.2907 31.3279L24.769 30.8127C24.6916 30.7337 24.5993 30.6708 24.4974 30.6278C24.3956 30.5848 24.2861 30.5626 24.1755 30.5623C24.065 30.562 23.9554 30.5837 23.8533 30.6262C23.7512 30.6687 23.6586 30.7311 23.5808 30.8097C23.5031 30.8883 23.4418 30.9818 23.4004 31.0844C23.3591 31.1869 23.3386 31.2967 23.3402 31.4072C23.3417 31.5178 23.3652 31.6269 23.4094 31.7283C23.4535 31.8297 23.5174 31.9214 23.5973 31.9978L24.704 33.0928C24.86 33.247 25.0705 33.3335 25.2898 33.3335C25.5092 33.3335 25.7197 33.247 25.8757 33.0928L28.0873 30.9045C28.2084 30.788 28.2913 30.6375 28.3254 30.473C28.3594 30.3084 28.3429 30.1375 28.278 29.9825C28.2131 29.8275 28.1029 29.6957 27.9618 29.6045C27.8207 29.5132 27.6553 29.4684 27.4873 29.4728ZM18.344 29.9996V31.6662H20.0107V29.9996H18.344ZM31.6773 29.9996H33.344V31.6662H31.6773V29.9996ZM38.344 29.9996H40.0107V31.6662H38.344V29.9996ZM45.0107 29.9996H46.6773V31.6662H45.0107V29.9996ZM51.6773 29.9996H53.344V31.6662H51.6773V29.9996ZM17.5107 34.9996C17.2896 34.9996 17.0777 35.0872 16.9214 35.2435C16.7651 35.3998 16.6773 35.6119 16.6773 35.8329V39.1662C16.6773 39.3872 16.7651 39.5991 16.9214 39.7554C17.0777 39.9117 17.2896 39.9996 17.5107 39.9996H20.844C21.065 39.9996 21.277 39.9117 21.4332 39.7554C21.5895 39.5991 21.6773 39.3872 21.6773 39.1662V35.8329C21.6773 35.6119 21.5895 35.3998 21.4332 35.2435C21.277 35.0872 21.065 34.9996 20.844 34.9996H17.5107ZM24.1773 34.9996C23.9563 34.9996 23.7443 35.0872 23.5881 35.2435C23.4318 35.3998 23.344 35.6119 23.344 35.8329V39.1662C23.344 39.3872 23.4318 39.5991 23.5881 39.7554C23.7443 39.9117 23.9563 39.9996 24.1773 39.9996H27.5107C27.7317 39.9996 27.9436 39.9117 28.0999 39.7554C28.2562 39.5991 28.344 39.3872 28.344 39.1662V35.8329C28.344 35.6119 28.2562 35.3998 28.0999 35.2435C27.9436 35.0872 27.7317 34.9996 27.5107 34.9996H24.1773ZM30.844 34.9996C30.623 34.9996 30.411 35.0872 30.2547 35.2435C30.0984 35.3998 30.0107 35.6119 30.0107 35.8329V39.1662C30.0107 39.3872 30.0984 39.5991 30.2547 39.7554C30.411 39.9117 30.623 39.9996 30.844 39.9996H34.1773C34.3983 39.9996 34.6103 39.9117 34.7666 39.7554C34.9229 39.5991 35.0107 39.3872 35.0107 39.1662V35.8329C35.0107 35.6119 34.9229 35.3998 34.7666 35.2435C34.6103 35.0872 34.3983 34.9996 34.1773 34.9996H30.844ZM37.5107 34.9996C37.2896 34.9996 37.0777 35.0872 36.9214 35.2435C36.7651 35.3998 36.6773 35.6119 36.6773 35.8329V39.1662C36.6773 39.3872 36.7651 39.5991 36.9214 39.7554C37.0777 39.9117 37.2896 39.9996 37.5107 39.9996H40.844C41.065 39.9996 41.277 39.9117 41.4332 39.7554C41.5895 39.5991 41.6773 39.3872 41.6773 39.1662V35.8329C41.6773 35.6119 41.5895 35.3998 41.4332 35.2435C41.277 35.0872 41.065 34.9996 40.844 34.9996H37.5107ZM50.844 34.9996C50.623 34.9996 50.411 35.0872 50.2547 35.2435C50.0984 35.3998 50.0107 35.6119 50.0107 35.8329V39.1662C50.0107 39.3872 50.0984 39.5991 50.2547 39.7554C50.411 39.9117 50.623 39.9996 50.844 39.9996H54.1773C54.3983 39.9996 54.6103 39.9117 54.7666 39.7554C54.9229 39.5991 55.0107 39.3872 55.0107 39.1662V35.8329C55.0107 35.6119 54.9229 35.3998 54.7666 35.2435C54.6103 35.0872 54.3983 34.9996 54.1773 34.9996H50.844ZM47.4907 36.1395C47.2748 36.1443 47.0693 36.2327 46.9173 36.3861L45.2906 37.9946L44.769 37.4794C44.6916 37.4004 44.5993 37.3375 44.4974 37.2945C44.3956 37.2515 44.2861 37.2293 44.1755 37.229C44.065 37.2287 43.9554 37.2504 43.8533 37.2929C43.7512 37.3353 43.6586 37.3977 43.5808 37.4764C43.5031 37.555 43.4418 37.6484 43.4004 37.751C43.3591 37.8536 43.3386 37.9633 43.3402 38.0739C43.3417 38.1845 43.3652 38.2936 43.4094 38.3949C43.4535 38.4963 43.5174 38.5881 43.5973 38.6645L44.704 39.7595C44.86 39.9137 45.0705 40.0002 45.2898 40.0002C45.5092 40.0002 45.7197 39.9137 45.8756 39.7595L48.0906 37.5712C48.2117 37.4546 48.2947 37.3042 48.3287 37.1397C48.3627 36.9751 48.3462 36.8041 48.2813 36.6491C48.2165 36.4941 48.1062 36.3624 47.9651 36.2711C47.824 36.1799 47.6586 36.1351 47.4907 36.1395ZM18.344 36.6662H20.0107V38.3329H18.344V36.6662ZM25.0106 36.6662H26.6773V38.3329H25.0106V36.6662ZM31.6773 36.6662H33.344V38.3329H31.6773V36.6662ZM38.344 36.6662H40.0107V38.3329H38.344V36.6662ZM51.6773 36.6662H53.344V38.3329H51.6773V36.6662ZM17.5107 41.6662C17.2896 41.6662 17.0777 41.7539 16.9214 41.9102C16.7651 42.0664 16.6773 42.2785 16.6773 42.4996V45.8329C16.6773 46.0539 16.7651 46.2658 16.9214 46.4221C17.0777 46.5784 17.2896 46.6662 17.5107 46.6662H20.844C21.065 46.6662 21.277 46.5784 21.4332 46.4221C21.5895 46.2658 21.6773 46.0539 21.6773 45.8329V42.4996C21.6773 42.2785 21.5895 42.0664 21.4332 41.9102C21.277 41.7539 21.065 41.6662 20.844 41.6662H17.5107ZM24.1773 41.6662C23.9563 41.6662 23.7443 41.7539 23.5881 41.9102C23.4318 42.0664 23.344 42.2785 23.344 42.4996V45.8329C23.344 46.0539 23.4318 46.2658 23.5881 46.4221C23.7443 46.5784 23.9563 46.6662 24.1773 46.6662H27.5107C27.7317 46.6662 27.9436 46.5784 28.0999 46.4221C28.2562 46.2658 28.344 46.0539 28.344 45.8329V42.4996C28.344 42.2785 28.2562 42.0664 28.0999 41.9102C27.9436 41.7539 27.7317 41.6662 27.5107 41.6662H24.1773ZM37.5107 41.6662C37.2896 41.6662 37.0777 41.7539 36.9214 41.9102C36.7651 42.0664 36.6773 42.2785 36.6773 42.4996V45.8329C36.6773 46.0539 36.7651 46.2658 36.9214 46.4221C37.0777 46.5784 37.2896 46.6662 37.5107 46.6662H40.844C41.065 46.6662 41.277 46.5784 41.4332 46.4221C41.5895 46.2658 41.6773 46.0539 41.6773 45.8329V42.4996C41.6773 42.2785 41.5895 42.0664 41.4332 41.9102C41.277 41.7539 41.065 41.6662 40.844 41.6662H37.5107ZM44.1773 41.6662C43.9563 41.6662 43.7443 41.7539 43.5881 41.9102C43.4318 42.0664 43.344 42.2785 43.344 42.4996V45.8329C43.344 46.0539 43.4318 46.2658 43.5881 46.4221C43.7443 46.5784 43.9563 46.6662 44.1773 46.6662H47.5107C47.7317 46.6662 47.9436 46.5784 48.0999 46.4221C48.2562 46.2658 48.344 46.0539 48.344 45.8329V42.4996C48.344 42.2785 48.2562 42.0664 48.0999 41.9102C47.9436 41.7539 47.7317 41.6662 47.5107 41.6662H44.1773ZM50.844 41.6662C50.623 41.6662 50.411 41.7539 50.2547 41.9102C50.0984 42.0664 50.0107 42.2785 50.0107 42.4996V45.8329C50.0107 46.0539 50.0984 46.2658 50.2547 46.4221C50.411 46.5784 50.623 46.6662 50.844 46.6662H54.1773C54.3983 46.6662 54.6103 46.5784 54.7666 46.4221C54.9229 46.2658 55.0107 46.0539 55.0107 45.8329V42.4996C55.0107 42.2785 54.9229 42.0664 54.7666 41.9102C54.6103 41.7539 54.3983 41.6662 54.1773 41.6662H50.844ZM34.1573 42.8027C33.9403 42.8067 33.7334 42.8953 33.5807 43.0495L31.9573 44.6612L31.4356 44.1461C31.3583 44.067 31.266 44.0041 31.1641 43.9611C31.0622 43.9181 30.9528 43.8959 30.8422 43.8956C30.7316 43.8954 30.6221 43.917 30.52 43.9595C30.4179 44.002 30.3253 44.0644 30.2475 44.143C30.1697 44.2217 30.1084 44.3151 30.0671 44.4177C30.0258 44.5203 30.0053 44.63 30.0068 44.7406C30.0084 44.8511 30.0319 44.9602 30.076 45.0616C30.1202 45.163 30.1841 45.2547 30.264 45.3312L31.3707 46.4262C31.5266 46.5803 31.7371 46.6668 31.9565 46.6668C32.1758 46.6668 32.3863 46.5803 32.5423 46.4262L34.754 44.2344C34.8748 44.118 34.9577 43.9679 34.9918 43.8037C35.0259 43.6395 35.0097 43.4688 34.9452 43.314C34.8808 43.1591 34.7711 43.0273 34.6305 42.9358C34.4899 42.8443 34.325 42.799 34.1573 42.8027ZM18.344 43.3329H20.0107V44.9996H18.344V43.3329ZM25.0106 43.3329H26.6773V44.9996H25.0106V43.3329ZM38.344 43.3329H40.0107V44.9996H38.344V43.3329ZM45.0107 43.3329H46.6773V44.9996H45.0107V43.3329ZM51.6773 43.3329H53.344V44.9996H51.6773V43.3329ZM17.5107 48.3329C17.2896 48.3329 17.0777 48.4205 16.9214 48.5768C16.7651 48.7331 16.6773 48.9452 16.6773 49.1662V52.4996C16.6773 52.7206 16.7651 52.9325 16.9214 53.0887C17.0777 53.245 17.2896 53.3329 17.5107 53.3329H20.844C21.065 53.3329 21.277 53.245 21.4332 53.0887C21.5895 52.9325 21.6773 52.7206 21.6773 52.4996V49.1662C21.6773 48.9452 21.5895 48.7331 21.4332 48.5768C21.277 48.4205 21.065 48.3329 20.844 48.3329H17.5107ZM24.1773 48.3329C23.9563 48.3329 23.7443 48.4205 23.5881 48.5768C23.4318 48.7331 23.344 48.9452 23.344 49.1662V52.4996C23.344 52.7206 23.4318 52.9325 23.5881 53.0887C23.7443 53.245 23.9563 53.3329 24.1773 53.3329H27.5107C27.7317 53.3329 27.9436 53.245 28.0999 53.0887C28.2562 52.9325 28.344 52.7206 28.344 52.4996V49.1662C28.344 48.9452 28.2562 48.7331 28.0999 48.5768C27.9436 48.4205 27.7317 48.3329 27.5107 48.3329H24.1773ZM18.344 49.9996H20.0107V51.6662H18.344V49.9996ZM25.0106 49.9996H26.6773V51.6662H25.0106V49.9996ZM31.6773 49.9996V51.6662H33.344V49.9996H31.6773ZM38.344 49.9996V51.6662H40.0107V49.9996H38.344ZM45.0107 49.9996V51.6662H46.6773V49.9996H45.0107ZM51.6773 49.9996V51.6662H53.344V49.9996H51.6773Z" fill="white"/>
</g>
<defs>
<linearGradient id="paint0_linear_1302_10625" x1="35" y1="0" x2="35" y2="70.0001" gradientUnits="userSpaceOnUse">
<stop stop-color="#01E5D4"/>
<stop offset="0.83" stop-color="#137AEA"/>
</linearGradient>
<clipPath id="clip0_1302_10625">
<rect width="70" height="70" fill="white"/>
</clipPath>
</defs>
</svg>
