<svg width="18" height="18" viewBox="0 0 18 18" fill="none" xmlns="http://www.w3.org/2000/svg">
<path d="M5.25 12.75V12.75C3.59315 12.75 2.25 11.4069 2.25 9.75V7.875C2.25 7.06203 2.25 6.65554 2.30889 6.31615C2.59775 4.65144 3.90144 3.34775 5.56615 3.05889C5.90554 3 6.31203 3 7.125 3H10.875C11.688 3 12.0945 3 12.4338 3.05889C14.0986 3.34775 15.4023 4.65144 15.6911 6.31615C15.75 6.65554 15.75 7.06203 15.75 7.875V7.875C15.75 8.68797 15.75 9.09446 15.6911 9.43385C15.4023 11.0986 14.0986 12.4023 12.4338 12.6911C12.0945 12.75 11.688 12.75 10.875 12.75H9" stroke="white" stroke-width="1.5" stroke-linecap="round" stroke-linejoin="round"/>
<path d="M5.25 12.75L4.5 15L9 12.75" stroke="white" stroke-width="1.5" stroke-linecap="round" stroke-linejoin="round"/>
</svg>
