<svg width="18" height="18" viewBox="0 0 18 18" fill="none" xmlns="http://www.w3.org/2000/svg">
<path d="M9.22022 1.60669C5.07809 1.60669 1.72021 4.96456 1.72021 9.10669C1.72021 10.5649 2.13681 11.9256 2.85685 13.0771L1.72021 16.6067L5.24976 15.4701C6.4013 16.1901 7.76201 16.6067 9.22022 16.6067C13.3623 16.6067 16.7202 13.2488 16.7202 9.10669C16.7202 4.96456 13.3623 1.60669 9.22022 1.60669Z" stroke="white" stroke-width="1.5" stroke-miterlimit="10" stroke-linecap="round" stroke-linejoin="round"/>
<path d="M10.0148 9.10541C10.0148 9.54419 9.65905 9.8999 9.22027 9.8999C8.78149 9.8999 8.42578 9.54419 8.42578 9.10541C8.42578 8.66663 8.78149 8.31092 9.22027 8.31092C9.65905 8.31092 10.0148 8.66663 10.0148 9.10541Z" fill="white"/>
<path d="M13.193 9.10541C13.193 9.54419 12.8373 9.8999 12.3985 9.8999C11.9597 9.8999 11.604 9.54419 11.604 9.10541C11.604 8.66663 11.9597 8.31092 12.3985 8.31092C12.8373 8.31092 13.193 8.66663 13.193 9.10541Z" fill="white"/>
<path d="M6.83703 9.10541C6.83703 9.54419 6.48132 9.8999 6.04254 9.8999C5.60376 9.8999 5.24805 9.54419 5.24805 9.10541C5.24805 8.66663 5.60376 8.31092 6.04254 8.31092C6.48132 8.31092 6.83703 8.66663 6.83703 9.10541Z" fill="white"/>
</svg>
