<svg width="30" height="34" viewBox="0 0 30 34" fill="none" xmlns="http://www.w3.org/2000/svg">
<path d="M22.4375 0H9.6875C7.43923 0 5.43752 2.06233 5.43752 4.25002L4.20926 4.27871C1.96206 4.27871 0.125 6.3123 0.125 8.5V29.75C0.125 31.9377 2.12676 34 4.37503 34H20.3125C22.5608 34 24.5625 31.9377 24.5625 29.75H25.625C27.8733 29.75 29.875 27.6877 29.875 25.5001V8.52552L22.4375 0ZM20.3125 31.8751H4.37503C3.2594 31.8751 2.25004 30.8328 2.25004 29.75V8.5C2.25004 7.41733 3.15848 6.41006 4.27411 6.41006L5.43752 6.37501V25.5001C5.43752 27.6877 7.43923 29.75 9.6875 29.75H22.4375C22.4375 30.8327 21.4281 31.8751 20.3125 31.8751ZM27.75 25.5001C27.75 26.5827 26.7406 27.625 25.625 27.625H9.6875C8.57187 27.625 7.56251 26.5827 7.56251 25.5001V4.25002C7.56251 3.16736 8.57187 2.12504 9.6875 2.12504H20.3125C20.2955 4.57198 20.3125 6.4016 20.3125 6.4016C20.3125 8.60947 22.2994 10.625 24.5625 10.625H27.75V25.5001ZM24.5625 8.5C23.431 8.5 22.4375 6.44409 22.4375 5.3412V2.15581L27.75 8.5H24.5625ZM22.4375 14.8942H12.875C12.2885 14.8942 11.8125 15.3691 11.8125 15.9556C11.8125 16.5421 12.2885 17.017 12.875 17.017H22.4375C23.024 17.017 23.5 16.542 23.5 15.9556C23.5 15.3691 23.024 14.8942 22.4375 14.8942ZM22.4375 20.2013H12.875C12.2885 20.2013 11.8125 20.6763 11.8125 21.2627C11.8125 21.8493 12.2885 22.3242 12.875 22.3242H22.4375C23.024 22.3242 23.5 21.8493 23.5 21.2627C23.5 20.6763 23.024 20.2013 22.4375 20.2013Z" fill="url(#paint0_linear_8_16021)"/>
<defs>
<linearGradient id="paint0_linear_8_16021" x1="15" y1="0" x2="15" y2="34" gradientUnits="userSpaceOnUse">
<stop stop-color="#01E5D4"/>
<stop offset="0.83" stop-color="#137AEA"/>
</linearGradient>
</defs>
</svg>
