<svg width="48" height="30" viewBox="0 0 48 30" fill="none" xmlns="http://www.w3.org/2000/svg">
<rect width="48" height="30" rx="15" fill="url(#paint0_linear_8_4425)"/>
<circle cx="33" cy="15" r="13" fill="white"/>
<path d="M39.0189 16.6808C38.7253 17.7318 38.1616 18.6876 37.3839 19.4531C36.6062 20.2186 35.6416 20.7671 34.5861 21.0441C33.5306 21.3211 32.421 21.317 31.3676 21.0321C30.3142 20.7471 29.3538 20.1914 28.5819 19.4201C27.81 18.6488 27.2534 17.6888 26.9676 16.6356C26.6819 15.5825 26.6768 14.4729 26.953 13.4171C27.2291 12.3614 27.7769 11.3964 28.5418 10.6181C29.3066 9.8398 30.262 9.27531 31.3127 8.98079C31.3897 8.95601 31.4716 8.95051 31.5512 8.96478C31.6308 8.97906 31.7057 9.01267 31.7692 9.06267C31.8328 9.11266 31.8831 9.17751 31.9158 9.25151C31.9484 9.3255 31.9624 9.40639 31.9564 9.48704C31.9563 9.52531 31.9499 9.5633 31.9377 9.59954C31.6897 10.4945 31.6836 11.4392 31.92 12.3373C32.1563 13.2355 32.6266 14.0548 33.283 14.7118C33.9394 15.3688 34.7583 15.8399 35.6561 16.0771C36.554 16.3143 37.4987 16.3091 38.3939 16.062L38.5314 16.037C38.6402 16.0362 38.7463 16.0704 38.8341 16.1345C38.9219 16.1987 38.9867 16.2894 39.0189 16.3933C39.0504 16.4865 39.0504 16.5875 39.0189 16.6808Z" fill="url(#paint1_linear_8_4425)"/>
<defs>
<linearGradient id="paint0_linear_8_4425" x1="24" y1="0" x2="24" y2="30" gradientUnits="userSpaceOnUse">
<stop stop-color="#01E5D4"/>
<stop offset="0.83" stop-color="#137AEA"/>
</linearGradient>
<linearGradient id="paint1_linear_8_4425" x1="32.896" y1="8.95703" x2="32.896" y2="21.2489" gradientUnits="userSpaceOnUse">
<stop stop-color="#01E5D4"/>
<stop offset="0.83" stop-color="#137AEA"/>
</linearGradient>
</defs>
</svg>
