<svg width="24" height="24" viewBox="0 0 24 24" fill="none" xmlns="http://www.w3.org/2000/svg">
<g clip-path="url(#clip0_1302_11706)">
<path d="M3.5 24H18.5C19.4297 23.9974 20.3204 23.626 20.9765 22.9674C21.6327 22.3087 22.0008 21.4167 22 20.487V12.95C22 12.6848 21.8946 12.4304 21.7071 12.2429C21.5196 12.0554 21.2652 11.95 21 11.95C20.7348 11.95 20.4804 12.0554 20.2929 12.2429C20.1054 12.4304 20 12.6848 20 12.95V20.487C20.0013 20.8864 19.8441 21.2701 19.5629 21.5537C19.2817 21.8374 18.8994 21.9979 18.5 22H3.5C3.10057 21.9979 2.7183 21.8374 2.43708 21.5537C2.15587 21.2701 1.99867 20.8864 2 20.487V5.513C1.99867 5.11357 2.15587 4.72993 2.43708 4.44627C2.7183 4.16262 3.10057 4.00212 3.5 4H11C11.2652 4 11.5196 3.89464 11.7071 3.70711C11.8946 3.51957 12 3.26522 12 3C12 2.73478 11.8946 2.48043 11.7071 2.29289C11.5196 2.10536 11.2652 2 11 2H3.5C2.57031 2.00265 1.67964 2.37403 1.02346 3.03265C0.367281 3.69126 -0.000797091 4.5833 1.29611e-06 5.513V20.487C-0.000797091 21.4167 0.367281 22.3087 1.02346 22.9674C1.67964 23.626 2.57031 23.9974 3.5 24Z" fill="white"/>
<path d="M9.45499 10.5436L8.66599 14.1576C8.63027 14.3215 8.63638 14.4918 8.68373 14.6528C8.73109 14.8137 8.81818 14.9601 8.93699 15.0786C9.05742 15.1941 9.20393 15.2788 9.36408 15.3257C9.52423 15.3725 9.69331 15.38 9.85699 15.3476L13.463 14.5566C13.6502 14.5155 13.8217 14.4214 13.957 14.2856L23.071 5.17161C23.3496 4.89302 23.5706 4.56228 23.7214 4.19827C23.8722 3.83426 23.9498 3.44412 23.9498 3.05011C23.9498 2.6561 23.8722 2.26595 23.7214 1.90194C23.5706 1.53793 23.3496 1.20719 23.071 0.928607C22.4998 0.382743 21.7401 0.078125 20.95 0.078125C20.1599 0.078125 19.4002 0.382743 18.829 0.928607L9.72899 10.0516C9.59241 10.186 9.4973 10.3567 9.45499 10.5436ZM20.243 2.34361C20.4332 2.16135 20.6865 2.0596 20.95 2.0596C21.2135 2.0596 21.4667 2.16135 21.657 2.34361C21.842 2.53224 21.9456 2.7859 21.9456 3.05011C21.9456 3.31431 21.842 3.56798 21.657 3.75661L20.95 4.46361L19.536 3.04961L20.243 2.34361ZM11.343 11.2576L18.117 4.46661L19.517 5.87361L12.74 12.6666L10.945 13.0606L11.343 11.2576Z" fill="white"/>
</g>
<defs>
<clipPath id="clip0_1302_11706">
<rect width="24" height="24" fill="white"/>
</clipPath>
</defs>
</svg>
