<svg width="18" height="18" viewBox="0 0 18 18" fill="none" xmlns="http://www.w3.org/2000/svg">
<path d="M12.7083 17.5492H2.0865C1.18362 17.5492 0.449219 16.8148 0.449219 15.9119V5.29014C0.449219 4.38744 1.18362 3.65304 2.0865 3.65304H6.60252C6.79352 3.65604 6.97569 3.73403 7.10969 3.87016C7.2437 4.0063 7.31881 4.18966 7.31881 4.38069C7.31881 4.57172 7.2437 4.75508 7.10969 4.89122C6.97569 5.02735 6.79352 5.10533 6.60252 5.10834H2.08632C1.98624 5.10834 1.90452 5.18988 1.90452 5.29014V15.9119C1.90452 16.0124 1.98624 16.0937 2.08632 16.0937H12.7081C12.8086 16.0937 12.8901 16.0124 12.8901 15.9119V11.3959C12.8931 11.2049 12.9711 11.0228 13.1072 10.8887C13.2434 10.7547 13.4267 10.6796 13.6177 10.6796C13.8088 10.6796 13.9921 10.7547 14.1283 10.8887C14.2644 11.0228 14.3424 11.2049 14.3454 11.3959V15.9121C14.3454 16.8148 13.611 17.5492 12.7083 17.5492ZM17.2927 3.65646L15.9247 5.02626L12.974 2.07552L14.342 0.705719C14.684 0.363719 15.2389 0.363719 15.5809 0.705719L17.2927 2.41752C17.6347 2.75952 17.6347 3.31446 17.2927 3.65646Z" fill="white"/>
<path d="M15.1529 5.79822L8.64231 12.307L4.81641 13.1822L5.69157 9.35646L12.2022 2.84766L15.1529 5.79822Z" fill="white"/>
</svg>
