<svg width="70" height="70" viewBox="0 0 70 70" fill="none" xmlns="http://www.w3.org/2000/svg">
<g clip-path="url(#clip0_1302_10656)">
<path d="M55.2067 0H14.7933C6.6232 0 0 6.62316 0 14.7933V55.2066C0 63.3767 6.6232 70.0001 14.7933 70.0001H55.2067C63.3768 70.0001 70 63.3767 70 55.2066V14.7933C70 6.62316 63.3768 0 55.2067 0Z" fill="url(#paint0_linear_1302_10656)"/>
<path d="M40.6094 34.6661L36.5031 32.613C34.7594 31.7411 33.1281 30.9255 33.1094 30.9161C32.8188 30.7755 32.4719 30.7943 32.2 30.963C31.9187 31.1224 31.75 31.4224 31.75 31.7505V39.2505C31.75 39.5786 31.9187 39.8786 32.1906 40.0474C32.3406 40.1411 32.5188 40.188 32.6875 40.188C32.8281 40.188 32.9781 40.1505 33.1094 40.0849L40.6094 36.3349C40.9281 36.1755 41.125 35.8568 41.125 35.5005C41.125 35.1443 40.9281 34.8161 40.6094 34.6661ZM33.625 37.7318V33.2693L38.0875 35.5005L33.625 37.7318Z" fill="white"/>
<path d="M35.5008 25.1875C35.4539 25.1875 35.407 25.1875 35.3508 25.1875C35.332 25.1875 35.3039 25.1875 35.2852 25.1875C35.2383 25.1875 35.2008 25.1969 35.1539 25.1969C24.6633 25.3938 16.4039 34.4875 16.0477 34.8719C15.7289 35.2281 15.7289 35.7625 16.0477 36.1187C16.4039 36.5219 24.8508 45.8125 35.5008 45.8125H35.5102H35.5195C35.5852 45.8125 35.6508 45.8125 35.7164 45.8125C35.7633 45.8125 35.8008 45.8031 35.8477 45.8031C46.3383 45.6063 54.5977 36.5125 54.9539 36.1281C55.2727 35.7719 55.2727 35.2375 54.9539 34.8813C54.5977 34.4781 46.1508 25.1875 35.5008 25.1875ZM18.0539 35.5C19.357 34.2063 22.6758 31.1875 27.0258 29.1344C25.7695 30.7469 24.9445 32.875 24.8789 35.5562C25.0383 38.2187 25.9008 40.3281 27.1664 41.9313C22.7508 39.8781 19.3758 36.8031 18.0539 35.5ZM36.3258 43.9C36.082 43.9094 35.8383 43.9375 35.5852 43.9375C35.4727 43.9375 35.3508 43.9281 35.2383 43.9281C35.0789 43.9281 34.9102 43.9094 34.7508 43.9094C30.8508 43.6094 27.0727 40.9844 26.7445 35.5281C26.8852 30.1188 30.832 27.4375 34.6758 27.1094C34.9477 27.0906 35.2195 27.0625 35.4914 27.0625C35.5195 27.0625 35.5383 27.0625 35.5664 27.0625C35.8195 27.0625 36.082 27.0812 36.3352 27.1C40.1789 27.4375 43.9102 30.0531 44.257 35.5188C44.0977 40.9 40.1602 43.5719 36.3258 43.9ZM44.0039 41.8563C45.2508 40.2531 46.0664 38.1531 46.132 35.5188C46.132 35.4906 46.132 35.4625 46.132 35.4438C45.9727 32.7719 45.1008 30.6531 43.8258 29.0594C48.2508 31.1125 51.6352 34.1875 52.957 35.5C51.6445 36.7937 48.3445 39.8031 44.0039 41.8563Z" fill="white"/>
</g>
<defs>
<linearGradient id="paint0_linear_1302_10656" x1="35" y1="0" x2="35" y2="70.0001" gradientUnits="userSpaceOnUse">
<stop stop-color="#01E5D4"/>
<stop offset="0.83" stop-color="#137AEA"/>
</linearGradient>
<clipPath id="clip0_1302_10656">
<rect width="70" height="70" fill="white"/>
</clipPath>
</defs>
</svg>
