<svg width="44" height="50" viewBox="0 0 44 50" fill="none" xmlns="http://www.w3.org/2000/svg">
<path d="M36.9795 0.00195312H2.64453C2.1804 0.00195312 1.73528 0.186328 1.40709 0.514516C1.07891 0.842705 0.894531 1.28782 0.894531 1.75195V48.2495C0.894531 48.7136 1.07891 49.1587 1.40709 49.4869C1.73528 49.8151 2.1804 49.9995 2.64453 49.9995H36.9795C38.6034 49.9976 40.1603 49.3517 41.3085 48.2034C42.4568 47.0552 43.1027 45.4983 43.1045 43.8745V6.12695C43.1027 4.50307 42.4568 2.94623 41.3085 1.79797C40.1603 0.649711 38.6034 0.00380582 36.9795 0.00195312ZM39.6045 43.8745C39.6045 44.5706 39.328 45.2383 38.8357 45.7306C38.3434 46.2229 37.6757 46.4995 36.9795 46.4995H13.092V3.50195H36.9795C37.6757 3.50195 38.3434 3.77851 38.8357 4.2708C39.328 4.76308 39.6045 5.43076 39.6045 6.12695V43.8745ZM18.8172 15.1946C18.8172 14.7304 19.0015 14.2853 19.3297 13.9571C19.6579 13.629 20.103 13.4446 20.5672 13.4446H32.1259C32.59 13.4446 33.0352 13.629 33.3633 13.9571C33.6915 14.2853 33.8759 14.7304 33.8759 15.1946C33.8759 15.6587 33.6915 16.1038 33.3633 16.432C33.0352 16.7602 32.59 16.9446 32.1259 16.9446H20.5672C20.103 16.9446 19.6579 16.7602 19.3297 16.432C19.0015 16.1038 18.8172 15.6587 18.8172 15.1946ZM35.548 22.0441C35.548 22.5082 35.3637 22.9533 35.0355 23.2815C34.7073 23.6097 34.2622 23.7941 33.798 23.7941H18.895C18.4309 23.7941 17.9858 23.6097 17.6576 23.2815C17.3294 22.9533 17.145 22.5082 17.145 22.0441C17.145 21.5799 17.3294 21.1348 17.6576 20.8066C17.9858 20.4785 18.4309 20.2941 18.895 20.2941H33.798C34.2622 20.2941 34.7073 20.4785 35.0355 20.8066C35.3637 21.1348 35.548 21.5799 35.548 22.0441Z" fill="white"/>
</svg>
