<svg width="18" height="18" viewBox="0 0 18 18" fill="none" xmlns="http://www.w3.org/2000/svg">
<g clip-path="url(#clip0_3000_9090)">
<path d="M16.3125 1.2375H9.5625V0.5625C9.5625 0.24375 9.31875 0 9 0C8.68125 0 8.4375 0.24375 8.4375 0.5625V1.2375H1.6875C1.36875 1.2375 1.125 1.48125 1.125 1.8V11.2312H16.875V1.8C16.875 1.48125 16.6312 1.2375 16.3125 1.2375ZM17.4375 12.1687H0.5625C0.2625 12.1687 0 12.4312 0 12.7312C0 13.05 0.24375 13.2937 0.5625 13.2937H7.85625L4.5375 16.8C4.33125 17.025 4.33125 17.3812 4.55625 17.5875C4.78125 17.7937 5.1375 17.7937 5.34375 17.5687L8.4375 14.3062V17.4375C8.4375 17.7562 8.68125 18 9 18C9.31875 18 9.5625 17.7562 9.5625 17.4375V14.3062L12.6562 17.5687C12.8625 17.7937 13.2187 17.8125 13.4437 17.5875C13.6687 17.3812 13.6875 17.025 13.4625 16.8L10.1437 13.2937H17.4375C17.7562 13.2937 18 13.05 18 12.7312C18 12.4125 17.7562 12.1687 17.4375 12.1687Z" fill="white"/>
</g>
<defs>
<clipPath id="clip0_3000_9090">
<rect width="18" height="18" fill="white"/>
</clipPath>
</defs>
</svg>
