<svg width="19" height="19" viewBox="0 0 19 19" fill="none" xmlns="http://www.w3.org/2000/svg">
<g opacity="1" clip-path="url(#clip0_1662_1996)">
<path d="M16.7901 8.71313C16.7896 8.71278 16.7892 8.71228 16.7888 8.71191L10.2614 2.18547C9.98318 1.90709 9.61327 1.75391 9.21982 1.75391C8.82635 1.75391 8.45644 1.90709 8.17809 2.18544L1.65409 8.70859C1.6519 8.71078 1.64959 8.71309 1.64753 8.71531C1.07616 9.28988 1.07716 10.2221 1.65034 10.7952C1.91218 11.0572 2.2579 11.2088 2.62772 11.2248C2.64285 11.2263 2.65801 11.227 2.67326 11.227H2.93328V16.03C2.93328 16.9806 3.7068 17.7539 4.65746 17.7539H7.21118C7.47012 17.7539 7.67998 17.5439 7.67998 17.2851V13.5195C7.67998 13.0858 8.03292 12.733 8.46669 12.733H9.97293C10.4067 12.733 10.7595 13.0858 10.7595 13.5195V17.2852C10.7595 17.5439 10.9694 17.7539 11.2283 17.7539H13.782C14.7328 17.7539 15.5062 16.9806 15.5062 16.03V11.227H15.7475C16.1408 11.227 16.5107 11.0738 16.7892 10.7954C17.363 10.2214 17.3632 9.28744 16.79 8.71309L16.7901 8.71313ZM16.1261 10.1326C16.0765 10.1825 16.0175 10.222 15.9525 10.249C15.8875 10.2759 15.8178 10.2897 15.7475 10.2896H15.0374C14.7784 10.2896 14.5686 10.4994 14.5686 10.7583V16.03C14.5686 16.4636 14.2158 16.8164 13.782 16.8164H11.6971V13.5195C11.6971 12.569 10.9237 11.7955 9.9729 11.7955H8.46672C7.51593 11.7955 6.74242 12.569 6.74242 13.5195V16.8164H4.65752C4.22385 16.8164 3.87091 16.4636 3.87091 16.03V10.7583C3.87091 10.4993 3.66104 10.2895 3.40211 10.2895H2.70426C2.69695 10.289 2.68962 10.2887 2.68229 10.2885C2.54262 10.2861 2.41164 10.2307 2.3135 10.1324C2.10473 9.92366 2.10473 9.58397 2.3135 9.37509C2.3136 9.37509 2.3136 9.37497 2.31372 9.37484L2.3141 9.37447L8.84122 2.84828C8.8908 2.79838 8.9498 2.75881 9.01479 2.73188C9.07978 2.70495 9.14947 2.69119 9.21982 2.69141C9.36278 2.69141 9.4972 2.74706 9.59839 2.84828L16.1241 9.37316L16.1271 9.37609C16.3348 9.58522 16.3344 9.92422 16.1261 10.1326Z" fill="white" stroke="white" stroke-width="0.5"/>
</g>
<defs>
<clipPath id="clip0_1662_1996">
<rect width="18" height="18" fill="white" transform="translate(0.219727 0.753906)"/>
</clipPath>
</defs>
</svg>
