<svg width="19" height="19" viewBox="0 0 19 19" fill="none" xmlns="http://www.w3.org/2000/svg">
<path d="M13.7202 2.31055C15.3747 2.31055 16.7202 3.65605 16.7202 5.31055V14.3105C16.7202 15.965 15.3747 17.3105 13.7202 17.3105H4.72021C3.06571 17.3105 1.72021 15.965 1.72021 14.3105V5.31055C1.72021 3.65605 3.06571 2.31055 4.72021 2.31055H13.7202ZM13.7202 0.810547H4.72021C3.52674 0.810547 2.38215 1.28465 1.53823 2.12857C0.694321 2.97248 0.220215 4.11707 0.220215 5.31055L0.220215 14.3105C0.220215 15.504 0.694321 16.6486 1.53823 17.4925C2.38215 18.3364 3.52674 18.8105 4.72021 18.8105H13.7202C14.9137 18.8105 16.0583 18.3364 16.9022 17.4925C17.7461 16.6486 18.2202 15.504 18.2202 14.3105V5.31055C18.2202 4.11707 17.7461 2.97248 16.9022 2.12857C16.0583 1.28465 14.9137 0.810547 13.7202 0.810547Z" fill="white"/>
<path d="M9.22021 14.3105C9.0213 14.3105 8.83054 14.2315 8.68988 14.0909C8.54923 13.9502 8.47021 13.7595 8.47021 13.5605V6.06055C8.47021 5.86163 8.54923 5.67087 8.68988 5.53022C8.83054 5.38956 9.0213 5.31055 9.22021 5.31055C9.41913 5.31055 9.60989 5.38956 9.75054 5.53022C9.8912 5.67087 9.97021 5.86163 9.97021 6.06055V13.5605C9.97021 13.7595 9.8912 13.9502 9.75054 14.0909C9.60989 14.2315 9.41913 14.3105 9.22021 14.3105Z" fill="white"/>
<path d="M4.72021 9.81055C4.72021 9.61163 4.79923 9.42087 4.93988 9.28022C5.08054 9.13956 5.2713 9.06055 5.47021 9.06055H12.9702C13.1691 9.06055 13.3599 9.13956 13.5005 9.28022C13.6412 9.42087 13.7202 9.61163 13.7202 9.81055C13.7202 10.0095 13.6412 10.2002 13.5005 10.3409C13.3599 10.4815 13.1691 10.5605 12.9702 10.5605H5.47021C5.2713 10.5605 5.08054 10.4815 4.93988 10.3409C4.79923 10.2002 4.72021 10.0095 4.72021 9.81055Z" fill="white"/>
</svg>
