<svg width="35" height="34" viewBox="0 0 35 34" fill="none" xmlns="http://www.w3.org/2000/svg">
<path d="M25 9.5625C25 13.7046 21.6421 17.0625 17.5 17.0625C13.3579 17.0625 10 13.7046 10 9.5625C10 5.42036 13.3579 2.0625 17.5 2.0625C21.6421 2.0625 25 5.42036 25 9.5625Z" stroke="url(#paint0_linear_8_16026)" stroke-width="2"/>
<path d="M15.389 20.9923C14.4953 22.8787 14.1771 25.0004 14.4951 27.0874C14.7664 28.8676 15.4869 30.534 16.5711 31.9378H5.81405C5.23415 31.9357 4.67857 31.7044 4.26849 31.2943C3.85839 30.8842 3.62709 30.3286 3.625 29.7487V27.6255C3.625 27.6255 3.625 27.6254 3.625 27.6253C3.62626 25.5223 4.24715 23.4662 5.41012 21.714C6.45087 20.1459 7.88444 18.8834 9.56281 18.0491C11.1895 19.5679 13.2125 20.5863 15.389 20.9923Z" stroke="url(#paint1_linear_8_16026)" stroke-width="2"/>
<path d="M19.5849 29.0765C18.8777 28.018 18.5001 26.7736 18.5 25.5006C18.5021 23.7937 19.1811 22.1574 20.388 20.9505C21.5949 19.7436 23.2312 19.0646 24.9381 19.0625C26.2111 19.0626 27.4555 19.4402 28.514 20.1474C29.5726 20.8548 30.3977 21.8602 30.885 23.0365C31.3722 24.2128 31.4997 25.5071 31.2513 26.7559C31.0029 28.0047 30.3898 29.1517 29.4895 30.052C28.5892 30.9523 27.4422 31.5654 26.1934 31.8138C24.9446 32.0622 23.6503 31.9347 22.474 31.4475C21.2977 30.9602 20.2923 30.1351 19.5849 29.0765Z" stroke="url(#paint2_linear_8_16026)" stroke-width="2"/>
<path d="M25 24.4375V25.4375H26H27.0625C27.0791 25.4375 27.095 25.4441 27.1067 25.4558C27.1184 25.4675 27.125 25.4834 27.125 25.5C27.125 25.5166 27.1184 25.5325 27.1067 25.5442C27.095 25.5559 27.0791 25.5625 27.0625 25.5625H26H25V26.5625V27.625C25 27.6416 24.9934 27.6575 24.9817 27.6692C24.97 27.6809 24.9541 27.6875 24.9375 27.6875C24.9209 27.6875 24.905 27.6809 24.8933 27.6692C24.8816 27.6575 24.875 27.6416 24.875 27.625V26.5625V25.5625H23.875H22.8125C22.7959 25.5625 22.78 25.5559 22.7683 25.5442C22.7566 25.5325 22.75 25.5166 22.75 25.5C22.75 25.4834 22.7566 25.4675 22.7683 25.4558C22.78 25.4441 22.7959 25.4375 22.8125 25.4375H23.875H24.875V24.4375V23.375C24.875 23.3584 24.8816 23.3425 24.8933 23.3308C24.905 23.3191 24.9209 23.3125 24.9375 23.3125C24.9541 23.3125 24.97 23.3191 24.9817 23.3308C24.9934 23.3425 25 23.3584 25 23.375V24.4375Z" stroke="url(#paint3_linear_8_16026)" stroke-width="2"/>
<defs>
<linearGradient id="paint0_linear_8_16026" x1="17.5" y1="1.0625" x2="17.5" y2="18.0625" gradientUnits="userSpaceOnUse">
<stop stop-color="#01E5D4"/>
<stop offset="0.83" stop-color="#137AEA"/>
</linearGradient>
<linearGradient id="paint1_linear_8_16026" x1="10.785" y1="16.8516" x2="10.785" y2="32.9378" gradientUnits="userSpaceOnUse">
<stop stop-color="#01E5D4"/>
<stop offset="0.83" stop-color="#137AEA"/>
</linearGradient>
<linearGradient id="paint2_linear_8_16026" x1="24.9375" y1="18.0625" x2="24.9375" y2="32.9375" gradientUnits="userSpaceOnUse">
<stop stop-color="#01E5D4"/>
<stop offset="0.83" stop-color="#137AEA"/>
</linearGradient>
<linearGradient id="paint3_linear_8_16026" x1="24.9375" y1="22.3125" x2="24.9375" y2="28.6875" gradientUnits="userSpaceOnUse">
<stop stop-color="#01E5D4"/>
<stop offset="0.83" stop-color="#137AEA"/>
</linearGradient>
</defs>
</svg>
