<svg width="18" height="18" viewBox="0 0 18 18" fill="none" xmlns="http://www.w3.org/2000/svg">
<path d="M11.2499 9.75087C10.8352 9.75087 10.4999 10.0869 10.4999 10.5008V13.5009C10.4999 13.9141 10.1639 14.2508 9.74986 14.2508H7.49988V3.00094C7.49988 2.36043 7.0919 1.7882 6.47843 1.57519L6.25638 1.5009H9.74986C10.1639 1.5009 10.4999 1.83763 10.4999 2.25099V4.50097C10.4999 4.91486 10.8352 5.25091 11.2499 5.25091C11.6646 5.25091 11.9998 4.91486 11.9998 4.50097V2.25099C11.9998 1.01051 10.9903 0.00101172 9.74986 0.00101172H1.68748C1.65894 0.00101172 1.63503 0.0137733 1.60729 0.0174998C1.57115 0.0144764 1.5367 0.000976562 1.50003 0.000976562C0.672779 0.00101172 0 0.673685 0 1.50094V15.0008C0 15.6413 0.407984 16.2135 1.02146 16.4266L5.53495 17.9311C5.68795 17.9783 5.8401 18.0008 5.99995 18.0008C6.82721 18.0008 7.49985 17.3281 7.49985 16.5008V15.7509H9.74982C10.9903 15.7509 11.9998 14.7414 11.9998 13.5009V10.5008C11.9998 10.0869 11.6646 9.75087 11.2499 9.75087H11.2499Z" fill="white"/>
<path d="M17.7802 6.96984L14.7802 3.96991C14.6753 3.86495 14.5417 3.79345 14.3962 3.76446C14.2507 3.73547 14.0999 3.75028 13.9628 3.80704C13.6831 3.92337 13.5 4.19705 13.5 4.50013V6.75011H10.5001C10.0861 6.75011 9.75 7.08603 9.75 7.50006C9.75 7.91409 10.0861 8.25 10.5001 8.25H13.5V10.5C13.5 10.8031 13.6831 11.0767 13.9628 11.1931C14.0999 11.2498 14.2507 11.2646 14.3962 11.2357C14.5417 11.2067 14.6753 11.1352 14.7802 11.0303L17.7802 8.03028C18.0734 7.73708 18.0734 7.26304 17.7802 6.96984Z" fill="white"/>
</svg>
