<svg width="56" height="56" viewBox="0 0 56 56" fill="none" xmlns="http://www.w3.org/2000/svg">
<path fill-rule="evenodd" clip-rule="evenodd" d="M27.9986 1.75C23.6029 1.75175 19.2841 2.87344 15.4343 4.98383C15.2328 5.09425 15.0549 5.24329 14.911 5.42243C14.7671 5.60157 14.6598 5.8073 14.5954 6.02789C14.531 6.24847 14.5106 6.47959 14.5355 6.70804C14.5604 6.93649 14.63 7.1578 14.7404 7.35934C14.8509 7.56087 14.9999 7.73869 15.179 7.88262C15.3582 8.02656 15.5639 8.13381 15.7845 8.19824C16.0051 8.26267 16.2362 8.28302 16.4647 8.25813C16.6931 8.23324 16.9144 8.16359 17.116 8.05318C20.4507 6.21995 24.1933 5.25586 27.9986 5.24982C40.5805 5.24282 50.7475 15.4133 50.7475 27.9986C50.7475 40.584 40.584 50.7475 27.9986 50.7475C15.4133 50.7475 5.24982 40.584 5.24982 27.9986C5.24982 24.1873 6.20352 20.4373 8.02867 17.0932C8.15077 16.891 8.23066 16.6661 8.26352 16.4322C8.29638 16.1982 8.28153 15.96 8.21987 15.732C8.1582 15.5039 8.051 15.2907 7.90473 15.1052C7.75845 14.9197 7.57613 14.7658 7.36875 14.6526C7.16137 14.5395 6.93323 14.4695 6.69808 14.4469C6.46292 14.4243 6.22563 14.4495 6.00049 14.5211C5.77535 14.5927 5.56704 14.7091 5.3881 14.8633C5.20917 15.0175 5.06331 15.2064 4.95933 15.4185C2.85337 19.2771 1.74986 23.6027 1.75 27.9986C1.75 42.4739 13.5234 54.2473 27.9986 54.2473C42.4739 54.2473 54.2473 42.4739 54.2473 27.9986C54.2473 13.5234 42.4756 1.743 27.9986 1.75ZM10.7008 8.92813C10.467 8.924 10.2347 8.96679 10.0177 9.05395C9.80068 9.14111 9.60335 9.27089 9.43735 9.4356C9.27465 9.59812 9.14558 9.79112 9.05752 10.0036C8.96945 10.216 8.92412 10.4437 8.92412 10.6737C8.92412 10.9036 8.96945 11.1313 9.05752 11.3438C9.14558 11.5562 9.27465 11.7492 9.43735 11.9117C9.5999 12.0747 9.79301 12.204 10.0056 12.2922C10.2182 12.3804 10.4461 12.4258 10.6763 12.4258C10.9065 12.4258 11.1344 12.3804 11.347 12.2922C11.5596 12.204 11.7527 12.0747 11.9152 11.9117C12.2428 11.5831 12.4265 11.1378 12.4258 10.6738C12.4252 10.2098 12.2402 9.76505 11.9117 9.43735C11.5895 9.1168 11.1552 8.93417 10.7008 8.92813ZM21.006 15.7458C20.7747 15.7444 20.5455 15.7889 20.3315 15.8766C20.1175 15.9644 19.923 16.0937 19.7593 16.257C19.5956 16.4204 19.466 16.6146 19.3778 16.8284C19.2896 17.0422 19.2447 17.2714 19.2456 17.5027V38.4946C19.2456 38.7979 19.3244 39.0959 19.4742 39.3596C19.6241 39.6232 19.84 39.8434 20.1006 39.9985C20.3612 40.1536 20.6576 40.2383 20.9609 40.2443C21.2641 40.2503 21.5637 40.1774 21.8302 40.0328L41.0915 29.5298C41.365 29.3785 41.5929 29.1566 41.7517 28.8874C41.9105 28.6181 41.9942 28.3112 41.9942 27.9986C41.9942 27.6861 41.9105 27.3792 41.7517 27.1099C41.5929 26.8406 41.365 26.6188 41.0915 26.4675L21.8302 15.9645C21.5777 15.8248 21.2946 15.7496 21.006 15.7458ZM22.7489 20.4495L36.6082 27.9916L22.7489 35.5477V20.4495Z" fill="white"/>
</svg>
