<svg width="70" height="70" viewBox="0 0 70 70" fill="none" xmlns="http://www.w3.org/2000/svg">
<path d="M55.2067 0H14.7933C6.6232 0 0 6.62316 0 14.7933V55.2066C0 63.3767 6.6232 70.0001 14.7933 70.0001H55.2067C63.3768 70.0001 70 63.3767 70 55.2066V14.7933C70 6.62316 63.3768 0 55.2067 0Z" fill="url(#paint0_linear_1302_10635)"/>
<path d="M35 36.9062C28.797 36.9062 23.75 31.8592 23.75 25.6562C23.75 19.4533 28.797 14.4062 35 14.4062C41.203 14.4062 46.25 19.4533 46.25 25.6562C46.25 31.8592 41.203 36.9062 35 36.9062ZM35 17.2188C30.3467 17.2188 26.5625 21.003 26.5625 25.6562C26.5625 30.3095 30.3467 34.0938 35 34.0938C39.6533 34.0938 43.4375 30.3095 43.4375 25.6562C43.4375 21.003 39.6533 17.2188 35 17.2188Z" fill="white"/>
<path d="M35.5625 31.5625H34.4375C33.6493 31.5594 32.883 31.3029 32.2517 30.8309C31.6204 30.3589 31.1577 29.6964 30.9317 28.9413C30.8747 28.7628 30.854 28.5747 30.8707 28.3881C30.8874 28.2015 30.9412 28.0201 31.0289 27.8546C31.1167 27.6891 31.2367 27.5428 31.3818 27.4243C31.5269 27.3058 31.6942 27.2174 31.8739 27.1645C32.0537 27.1116 32.2421 27.0951 32.4283 27.116C32.6145 27.1369 32.7946 27.1948 32.9581 27.2863C33.1216 27.3778 33.2652 27.5011 33.3804 27.6488C33.4955 27.7966 33.58 27.9658 33.6289 28.1467C33.7344 28.5025 34.0677 28.7514 34.4375 28.7514H35.5625C35.7865 28.7514 36.0013 28.6624 36.1596 28.5041C36.318 28.3457 36.407 28.1309 36.407 27.907C36.407 27.683 36.318 27.4682 36.1596 27.3098C36.0013 27.1515 35.7865 27.0625 35.5625 27.0625H34.4375C32.4209 27.0625 30.7812 25.4214 30.7812 23.4062C30.7812 21.3911 32.4209 19.75 34.4375 19.75H35.5625C37.1389 19.75 38.5311 20.7541 39.0303 22.2503C39.0916 22.4262 39.1173 22.6125 39.106 22.7984C39.0947 22.9843 39.0466 23.1661 38.9645 23.3332C38.8824 23.5004 38.7679 23.6495 38.6276 23.7721C38.4874 23.8946 38.3242 23.9881 38.1475 24.047C37.9708 24.106 37.7842 24.1292 37.5985 24.1155C37.4128 24.1017 37.2316 24.0512 37.0656 23.9669C36.8995 23.8825 36.7519 23.766 36.6312 23.6242C36.5105 23.4823 36.4193 23.3179 36.3627 23.1405C36.3072 22.9721 36.2 22.8255 36.0563 22.7217C35.9126 22.6179 35.7398 22.5622 35.5625 22.5625H34.4375C34.2137 22.5625 33.9991 22.6514 33.8409 22.8096C33.6826 22.9679 33.5938 23.1825 33.5938 23.4062C33.5938 23.63 33.6826 23.8446 33.8409 24.0029C33.9991 24.1611 34.2137 24.25 34.4375 24.25H35.5625C37.5791 24.25 39.2188 25.8911 39.2188 27.9062C39.2188 29.9214 37.5791 31.5625 35.5625 31.5625Z" fill="white"/>
<path d="M35 21.4375C34.6189 21.4375 34.2673 21.2828 34.0016 21.0297C33.9453 20.9594 33.875 20.8891 33.8328 20.8047C33.7771 20.733 33.7342 20.6521 33.7062 20.5656C33.6658 20.4857 33.6369 20.4005 33.6205 20.3125C33.6078 20.2141 33.5938 20.1297 33.5938 20.0313C33.5938 19.6656 33.747 19.3 34.0016 19.0328C34.5219 18.5125 35.4641 18.5125 35.9984 19.0328C36.2516 19.3 36.4062 19.6656 36.4062 20.0313C36.4062 20.1297 36.3922 20.2141 36.3767 20.3125C36.3621 20.4008 36.3336 20.4862 36.2923 20.5656C36.2638 20.6518 36.221 20.7326 36.1658 20.8047C36.1095 20.8891 36.0533 20.9594 35.997 21.0297C35.7312 21.2828 35.3656 21.4375 35 21.4375ZM35 32.6875C34.6189 32.6875 34.2673 32.5328 34.0016 32.2797C33.9453 32.2094 33.875 32.1391 33.8328 32.0547C33.7771 31.983 33.7342 31.9021 33.7062 31.8156C33.6658 31.7357 33.6369 31.6505 33.6205 31.5625C33.6078 31.4641 33.5938 31.3797 33.5938 31.2812C33.5938 30.9156 33.747 30.55 34.0016 30.2828C34.5219 29.7625 35.4641 29.7625 35.9984 30.2828C36.2516 30.55 36.4062 30.9156 36.4062 31.2812C36.4062 31.3797 36.3922 31.4641 36.3767 31.5625C36.3621 31.6508 36.3336 31.7362 36.2923 31.8156C36.2638 31.9018 36.221 31.9826 36.1658 32.0547C36.1095 32.1391 36.0533 32.2094 35.997 32.2797C35.7312 32.5328 35.3656 32.6875 35 32.6875ZM37.8125 56.5938H15.3125C14.9395 56.5938 14.5819 56.4456 14.3181 56.1819C14.0544 55.9181 13.9062 55.5605 13.9062 55.1875V42.5312C13.9062 42.1586 14.0539 41.8 14.3183 41.537C14.6473 41.2066 17.637 38.3125 20.9375 38.3125C23.6713 38.3125 27.1981 40.3783 28.3836 41.125H35C35.6155 41.1259 36.2234 41.2614 36.7811 41.5218C37.3388 41.7823 37.8329 42.1614 38.2287 42.6328C38.6245 43.1042 38.9126 43.6564 39.0726 44.2507C39.2327 44.845 39.261 45.4672 39.1555 46.0736L50.2522 41.4498C50.8932 41.1821 51.5904 41.077 52.2818 41.144C52.9732 41.211 53.6373 41.4479 54.215 41.8337C54.7935 42.2183 55.2678 42.7401 55.5956 43.3526C55.9234 43.965 56.0946 44.6491 56.0938 45.3437C56.0938 45.5896 56.0295 45.8311 55.9071 46.0443C55.7847 46.2575 55.6086 46.4349 55.3962 46.5588L38.5212 56.4025C38.306 56.5277 38.0615 56.5937 37.8125 56.5938ZM16.7188 53.7812H37.4314L53.097 44.6434C52.9878 44.4551 52.8367 44.2944 52.6555 44.1737C52.4637 44.0435 52.2423 43.9636 52.0116 43.9412C51.7808 43.9188 51.5482 43.9548 51.335 44.0458L38.3553 49.4542C38.1833 49.5257 37.9988 49.5625 37.8125 49.5625H26.5625C26.1895 49.5625 25.8319 49.4143 25.5681 49.1506C25.3044 48.8869 25.1562 48.5292 25.1562 48.1562C25.1562 47.7833 25.3044 47.4256 25.5681 47.1619C25.8319 46.8982 26.1895 46.75 26.5625 46.75H35C35.3621 46.7338 35.704 46.5786 35.9545 46.3166C36.205 46.0547 36.3448 45.7062 36.3448 45.3437C36.3448 44.9813 36.205 44.6328 35.9545 44.3709C35.704 44.1089 35.3621 43.9537 35 43.9375H27.9688C27.6917 43.9375 27.4189 43.8545 27.1883 43.7027C26.1125 42.9855 22.888 41.125 20.9375 41.125C19.4047 41.125 17.637 42.3625 16.7188 43.1486V53.7812Z" fill="white"/>
<defs>
<linearGradient id="paint0_linear_1302_10635" x1="35" y1="0" x2="35" y2="70.0001" gradientUnits="userSpaceOnUse">
<stop stop-color="#01E5D4"/>
<stop offset="0.83" stop-color="#137AEA"/>
</linearGradient>
</defs>
</svg>
