<svg width="70" height="70" viewBox="0 0 70 70" fill="none" xmlns="http://www.w3.org/2000/svg">
<path d="M55.2067 0H14.7933C6.6232 0 0 6.62316 0 14.7933V55.2066C0 63.3767 6.6232 70.0001 14.7933 70.0001H55.2067C63.3768 70.0001 70 63.3767 70 55.2066V14.7933C70 6.62316 63.3768 0 55.2067 0Z" fill="url(#paint0_linear_1302_10647)"/>
<g clip-path="url(#clip0_1302_10647)">
<path d="M35.9928 22.5703L30.9865 27.45L32.1678 34.3407C32.1892 34.4697 32.1743 34.6021 32.1246 34.723C32.0749 34.844 31.9925 34.9487 31.8866 35.0254C31.7806 35.1021 31.6554 35.1477 31.525 35.1572C31.3946 35.1667 31.2641 35.1395 31.1483 35.0789L24.9537 31.8375L18.7592 35.093C18.6433 35.1536 18.5128 35.1807 18.3824 35.1713C18.252 35.1618 18.1268 35.1162 18.0209 35.0395C17.915 34.9628 17.8325 34.8581 17.7829 34.7371C17.7332 34.6161 17.7182 34.4837 17.7397 34.3547L18.9209 27.4641L13.9147 22.5703C13.8199 22.4791 13.7526 22.3631 13.7205 22.2355C13.6884 22.1079 13.6927 21.9738 13.733 21.8485C13.7733 21.7233 13.8479 21.6118 13.9484 21.5269C14.0489 21.4419 14.1712 21.3869 14.3014 21.368L21.2201 20.3625L24.3139 14.0907C24.3722 13.9737 24.462 13.8752 24.5731 13.8064C24.6843 13.7376 24.8124 13.7012 24.9432 13.7012C25.0739 13.7012 25.202 13.7376 25.3132 13.8064C25.4244 13.8752 25.5142 13.9737 25.5725 14.0907L28.6662 20.3625L35.585 21.368C35.7152 21.3869 35.8375 21.4419 35.938 21.5269C36.0384 21.6118 36.1131 21.7233 36.1534 21.8485C36.1936 21.9738 36.198 22.1079 36.1659 22.2355C36.1337 22.3631 36.0665 22.4791 35.9717 22.5703H35.9928ZM21.4381 56.6508C21.4381 56.6508 21.4381 56.6508 21.4381 56.5946V35.2758L24.9537 33.3914L30.4943 36.3024C30.8338 36.489 31.2181 36.5785 31.605 36.5611C31.992 36.5438 32.3667 36.4202 32.6881 36.2039C33.0192 35.9721 33.2767 35.6501 33.43 35.2762C33.5834 34.9022 33.626 34.4921 33.5529 34.0946L32.4983 27.9282L35.5639 24.9539H53.0787C53.2652 24.9539 53.444 25.028 53.5759 25.1599C53.7078 25.2917 53.7818 25.4706 53.7818 25.6571V48.9024L45.7311 40.8164C45.6654 40.7513 45.5875 40.6997 45.5018 40.6647C45.4161 40.6297 45.3244 40.612 45.2318 40.6125C45.1393 40.612 45.0476 40.6297 44.9619 40.6647C44.8762 40.6997 44.7983 40.7513 44.7326 40.8164L41.4983 44.0508L38.2639 40.8164C38.1321 40.6855 37.9539 40.612 37.7682 40.612C37.5824 40.612 37.4042 40.6855 37.2725 40.8164L21.4381 56.6508ZM38.3131 34.7977C38.3131 35.3539 38.478 35.8977 38.7871 36.3602C39.0961 36.8227 39.5354 37.1832 40.0493 37.3961C40.5632 37.609 41.1287 37.6647 41.6743 37.5561C42.2199 37.4476 42.721 37.1798 43.1143 36.7864C43.5077 36.3931 43.7755 35.892 43.8841 35.3464C43.9926 34.8008 43.9369 34.2353 43.724 33.7214C43.5111 33.2075 43.1507 32.7682 42.6881 32.4592C42.2256 32.1501 41.6819 31.9852 41.1256 31.9852C40.3797 31.9852 39.6643 32.2815 39.1369 32.809C38.6094 33.3364 38.3131 34.0518 38.3131 34.7977ZM45.2318 42.3071L42.5318 45.0422L53.7818 56.2922V50.8993L45.2318 42.3071ZM22.7881 57.2977H52.7623L37.7787 42.3071L22.7881 57.2977ZM41.1256 36.2039C41.4037 36.2039 41.6756 36.1215 41.9069 35.9669C42.1381 35.8124 42.3184 35.5928 42.4248 35.3358C42.5312 35.0789 42.5591 34.7961 42.5048 34.5233C42.4506 34.2506 42.3166 34 42.12 33.8033C41.9233 33.6067 41.6727 33.4727 41.3999 33.4185C41.1272 33.3642 40.8444 33.392 40.5875 33.4985C40.3305 33.6049 40.1109 33.7852 39.9563 34.0164C39.8018 34.2477 39.7193 34.5196 39.7193 34.7977C39.7193 35.1706 39.8675 35.5283 40.1312 35.7921C40.395 36.0558 40.7526 36.2039 41.1256 36.2039ZM56.5943 21.4383H37.5115C37.6261 21.8028 37.6395 22.1916 37.5503 22.5631C37.4612 22.9346 37.2728 23.2749 37.0053 23.5477H53.0787C53.6382 23.5477 54.1747 23.7699 54.5703 24.1655C54.9659 24.5611 55.1881 25.0976 55.1881 25.6571V53.4305H56.5943C56.7808 53.4305 56.9597 53.3564 57.0915 53.2246C57.2234 53.0927 57.2975 52.9139 57.2975 52.7274V22.1414C57.2975 21.955 57.2234 21.7761 57.0915 21.6443C56.9597 21.5124 56.7808 21.4383 56.5943 21.4383Z" fill="white"/>
</g>
<defs>
<linearGradient id="paint0_linear_1302_10647" x1="35" y1="0" x2="35" y2="70.0001" gradientUnits="userSpaceOnUse">
<stop stop-color="#01E5D4"/>
<stop offset="0.83" stop-color="#137AEA"/>
</linearGradient>
<clipPath id="clip0_1302_10647">
<rect width="45" height="45" fill="white" transform="translate(13 13)"/>
</clipPath>
</defs>
</svg>
