<svg width="74" height="74" viewBox="0 0 74 74" fill="none" xmlns="http://www.w3.org/2000/svg">
  <g clip-path="url(#clip0_987_6625)">
    <rect width="74" height="74" rx="14" fill="#111111"/>
    <g clip-path="url(#clip1_987_6625)">
      <rect width="34" height="34" transform="translate(20 20)" fill="#111111"/>
      <rect width="34" height="34" transform="translate(20 20)" fill="#111111"/>
      <path d="M37 21.416C33.4919 21.416 30.625 24.2828 30.625 27.791V38.416C30.625 41.9242 33.4919 44.791 37 44.791C40.5083 44.791 43.375 41.9242 43.375 38.416V27.791C43.375 24.2828 40.5083 21.416 37 21.416ZM35.0625 36.791V38.416C35.0625 39.7298 36.1463 40.791 37.5 40.791C38.8537 40.791 39.9375 39.7298 39.9375 38.416V36.791H35.0625ZM27.421 34.8591C27.1395 34.8635 26.8712 34.9795 26.6751 35.1816C26.479 35.3836 26.3711 35.6553 26.3751 35.9368V38.416C26.3751 43.913 30.5784 48.4518 35.9376 48.9871V52.2285C35.9356 52.3693 35.9616 52.5091 36.0141 52.6397C36.0666 52.7704 36.1446 52.8893 36.2434 52.9896C36.3423 53.0899 36.4601 53.1695 36.59 53.2238C36.7199 53.2782 36.8593 53.3061 37 53.3061C37.1409 53.3061 37.2803 53.2782 37.4102 53.2238C37.5401 53.1695 37.6579 53.0899 37.7568 52.9896C37.8556 52.8893 37.9336 52.7704 37.9861 52.6397C38.0386 52.5091 38.0646 52.3693 38.0626 52.2285V48.9871C43.4218 48.4518 47.6251 43.913 47.6251 38.416V35.9368C47.6271 35.7961 47.6011 35.6563 47.5486 35.5256C47.4961 35.395 47.4181 35.276 47.3193 35.1758C47.2204 35.0755 47.1026 34.9959 46.9727 34.9415C46.8428 34.8872 46.7034 34.8592 46.5626 34.8592C46.4218 34.8592 46.2824 34.8872 46.1525 34.9415C46.0226 34.9959 45.9048 35.0755 45.8059 35.1758C45.7071 35.276 45.6291 35.395 45.5766 35.5256C45.5241 35.6563 45.4981 35.7961 45.5001 35.9368V38.416C45.5001 43.0807 41.774 46.8415 37.126 46.9091C37.0787 46.9031 37.0311 46.9004 36.9835 46.9008C36.9446 46.9014 36.9059 46.9042 36.8673 46.9091C32.2225 46.8378 28.5001 43.0783 28.5001 38.416V35.9368C28.5021 35.7946 28.4756 35.6535 28.4221 35.5217C28.3686 35.3899 28.2891 35.2703 28.1885 35.1697C28.0879 35.0692 27.9681 34.99 27.8363 34.9366C27.7044 34.8833 27.5632 34.8569 27.421 34.8591Z" fill="url(#paint0_linear_987_6625)"/>
      <line x1="23" y1="23" x2="51" y2="51" stroke="#137EEA" stroke-width="4"/>
    </g>
  </g>
  <rect x="0.5" y="0.5" width="73" height="73" rx="13.5" stroke="#137EEA"/>
  <defs>
    <linearGradient id="paint0_linear_987_6625" x1="37" y1="21.416" x2="37" y2="53.3061" gradientUnits="userSpaceOnUse">
      <stop stop-color="#01E5D4"/>
      <stop offset="0.83" stop-color="#137AEA"/>
    </linearGradient>
    <clipPath id="clip0_987_6625">
      <rect width="74" height="74" rx="14" fill="white"/>
    </clipPath>
    <clipPath id="clip1_987_6625">
      <rect width="34" height="34" fill="white" transform="translate(20 20)"/>
    </clipPath>
  </defs>
</svg>
