<svg width="14" height="14" viewBox="0 0 14 14" fill="none" xmlns="http://www.w3.org/2000/svg">
<path d="M6.99982 0.583008C5.55316 0.583008 4.37482 1.76134 4.37482 3.20801V7.58301C4.37482 7.64426 4.3776 7.70526 4.38052 7.76359L4.81232 7.33236V7.33179L5.17691 6.96777L8.74982 3.39486V3.39429L9.17251 2.9716L9.55191 2.59277C9.27482 1.44069 8.23357 0.583008 6.99982 0.583008ZM12.3871 1.16235C12.2735 1.16566 12.1656 1.21306 12.0863 1.29451L1.29466 12.0862C1.25268 12.1265 1.21916 12.1748 1.19606 12.2282C1.17297 12.2816 1.16077 12.3391 1.16018 12.3974C1.15959 12.4556 1.17061 12.5133 1.19262 12.5672C1.21462 12.6211 1.24715 12.67 1.28831 12.7112C1.32947 12.7523 1.37843 12.7849 1.43232 12.8069C1.48621 12.8289 1.54394 12.8399 1.60215 12.8393C1.66035 12.8387 1.71785 12.8265 1.77129 12.8034C1.82472 12.7803 1.873 12.7468 1.91332 12.7048L3.92764 10.6905C4.62006 11.3767 5.54021 11.8307 6.56232 11.9329V13.2705C6.5615 13.3285 6.57222 13.386 6.59383 13.4398C6.61545 13.4936 6.64755 13.5426 6.68825 13.5839C6.72896 13.6252 6.77747 13.658 6.83096 13.6803C6.88444 13.7027 6.94184 13.7142 6.99982 13.7142C7.0578 13.7142 7.11521 13.7027 7.16869 13.6803C7.22218 13.658 7.27069 13.6252 7.31139 13.5839C7.3521 13.5426 7.3842 13.4936 7.40581 13.4398C7.42743 13.386 7.43814 13.3285 7.43732 13.2705V11.9358C9.64477 11.7155 11.3748 9.84741 11.3748 7.58301V6.56217C11.3748 6.32009 11.1794 6.12467 10.9373 6.12467C10.6952 6.12467 10.4998 6.32009 10.4998 6.56217V7.58301C10.4998 9.49635 8.95842 11.0521 7.05166 11.0802C7.04674 11.0795 7.0418 11.0789 7.03685 11.0785C7.02227 11.0771 7.00763 11.0766 6.99299 11.0767C6.97833 11.077 6.96369 11.0779 6.94912 11.0796C6.94836 11.0798 6.9476 11.08 6.94685 11.0802C6.94665 11.0802 6.94647 11.0802 6.94628 11.0802C6.01107 11.0659 5.16456 10.6845 4.54572 10.0724L5.16608 9.45207C5.64 9.91715 6.28518 10.208 6.99982 10.208C8.44649 10.208 9.62482 9.02967 9.62482 7.58301V4.99333L12.705 1.91317C12.7681 1.8517 12.8112 1.7726 12.8286 1.68624C12.846 1.59988 12.837 1.51026 12.8026 1.42913C12.7683 1.348 12.7102 1.27913 12.6361 1.23153C12.562 1.18393 12.4752 1.15982 12.3871 1.16235ZM3.06232 6.12467C2.82024 6.12467 2.62482 6.32009 2.62482 6.56217V7.58301C2.62482 8.15759 2.73575 8.70602 2.937 9.20768L3.628 8.51611C3.54341 8.21861 3.49982 7.90676 3.49982 7.58301V6.56217C3.49982 6.32009 3.30441 6.12467 3.06232 6.12467Z" fill="white"/>
</svg>
