<svg width="32" height="32" viewBox="0 0 32 32" fill="none" xmlns="http://www.w3.org/2000/svg">
<circle cx="16" cy="16" r="16" fill="#0366FF"/>
<path fill-rule="evenodd" clip-rule="evenodd" d="M20.9 7.57H21C23.7614 7.57 26 9.80858 26 12.57V21.57C26 24.3314 23.7614 26.57 21 26.57H11C9.67392 26.57 8.40215 26.0432 7.46447 25.1055C6.52678 24.1679 6 22.8961 6 21.57V12.57C6 9.80858 8.23858 7.57 11 7.57H11.1V5.75C11.1 5.33579 11.4358 5 11.85 5C12.2642 5 12.6 5.33579 12.6 5.75V7.57H19.4V5.75C19.4 5.33579 19.7358 5 20.15 5C20.5642 5 20.9 5.33579 20.9 5.75V7.57ZM11.5 13.66H20.5C20.9142 13.66 21.25 13.3242 21.25 12.91C21.25 12.4958 20.9142 12.16 20.5 12.16H11.5C11.0858 12.16 10.75 12.4958 10.75 12.91C10.75 13.3242 11.0858 13.66 11.5 13.66Z" fill="white"/>
</svg>
