<svg width="16" height="18" viewBox="0 0 16 18" fill="none" xmlns="http://www.w3.org/2000/svg">
<path d="M11.2147 10.4345V8.07227L6.19531 13.0921C6.72722 13.4553 7.3565 13.6493 8.0006 13.6486C9.77293 13.6486 11.2147 12.2068 11.2147 10.4345Z" fill="white"/>
<path d="M13.1667 8.51251H12.5265C12.4277 8.51251 12.333 8.55174 12.2631 8.62158C12.1933 8.69143 12.1541 8.78615 12.1541 8.88492V10.1938C12.1541 12.4841 10.2907 14.3477 8.00012 14.3477C7.16547 14.3485 6.35014 14.0965 5.66153 13.6249L4.68487 14.6015C5.43659 15.1758 6.33393 15.5655 7.3078 15.688V16.6154H4.4495C4.35073 16.6154 4.25601 16.6546 4.18616 16.7244C4.11632 16.7943 4.07709 16.889 4.07709 16.9878V17.6276C4.07709 17.7264 4.11632 17.8211 4.18616 17.8909C4.25601 17.9608 4.35073 18 4.4495 18H11.5511C11.6499 18 11.7446 17.9608 11.8144 17.8909C11.8843 17.8211 11.9235 17.7264 11.9235 17.6276V16.9878C11.9235 16.889 11.8843 16.7943 11.8144 16.7244C11.7446 16.6546 11.6499 16.6154 11.5511 16.6154H8.69263V15.688C11.4102 15.3458 13.5389 12.9323 13.5389 10.1938V8.88492C13.5391 8.67916 13.3722 8.51251 13.1667 8.51251ZM15.009 1.43269C14.8169 1.24069 14.5565 1.13283 14.2849 1.13283C14.0134 1.13283 13.7529 1.24069 13.5609 1.43269L11.2146 3.77891V3.21433C11.2146 1.44181 9.77282 0 8.00031 0C6.22779 0 4.78598 1.44181 4.78598 3.21433V10.2072L3.93836 11.0548C3.87768 10.7718 3.84685 10.4832 3.84637 10.1938V8.88492C3.84637 8.78615 3.80714 8.69143 3.7373 8.62158C3.66745 8.55174 3.57273 8.51251 3.47396 8.51251H2.83396C2.73519 8.51251 2.64046 8.55174 2.57062 8.62158C2.50078 8.69143 2.46154 8.78615 2.46154 8.88492V10.1938C2.46154 10.8772 2.59673 11.5395 2.83806 12.1551L0.99143 14.0016C0.799346 14.1936 0.691424 14.4541 0.691406 14.7257C0.691398 14.8602 0.71788 14.9934 0.769343 15.1177C0.820805 15.242 0.896239 15.3549 0.991337 15.45C1.08644 15.5451 1.19934 15.6205 1.32359 15.672C1.44785 15.7235 1.58103 15.75 1.71553 15.75C1.98716 15.75 2.24767 15.6421 2.43976 15.4501L15.0088 2.88101C15.104 2.78596 15.1795 2.67309 15.231 2.54883C15.2825 2.42458 15.3091 2.2914 15.3091 2.15689C15.3091 2.02238 15.2826 1.88918 15.2311 1.76492C15.1796 1.64066 15.1041 1.52776 15.009 1.43269Z" fill="white"/>
</svg>


