<svg width="19" height="13" viewBox="0 0 19 13" fill="none" xmlns="http://www.w3.org/2000/svg">
<path fill-rule="evenodd" clip-rule="evenodd" d="M0.220215 2.34754C0.220215 1.30439 1.04326 0.45874 2.05854 0.45874H13.0885C14.1038 0.45874 14.9268 1.30439 14.9268 2.34754V3.12528H13.4129V2.34754C13.4129 2.16346 13.2677 2.01422 13.0885 2.01422H2.05854C1.87937 2.01422 1.73413 2.16346 1.73413 2.34754V10.4583C1.73413 10.6424 1.87937 10.7916 2.05854 10.7916H8.87117V12.3471H2.05854C1.04326 12.3471 0.220215 11.5014 0.220215 10.4583V2.34754Z" fill="white"/>
<ellipse cx="14.1701" cy="6.12759" rx="1.94646" ry="1.99991" fill="white"/>
<path d="M14.0618 8.56812C11.8002 8.56812 10.2512 9.5377 9.91367 11.5713C9.83337 12.0552 10.2318 12.4568 10.7096 12.4568H17.414C17.8918 12.4568 18.2902 12.0552 18.2099 11.5713C17.8724 9.5377 16.3234 8.56812 14.0618 8.56812Z" fill="white"/>
</svg>
