<svg width="25" height="20" viewBox="0 0 25 20" fill="none" xmlns="http://www.w3.org/2000/svg">
<path d="M22.4674 16.2732C22.6176 16.6888 23.0762 16.9038 23.4917 16.7536C23.9072 16.6034 24.1223 16.1448 23.9721 15.7293C23.8219 15.3138 23.3633 15.0987 22.9478 15.2489C22.5322 15.3991 22.3172 15.8577 22.4674 16.2732ZM19.9053 14.018L23.1378 16.1269L23.3017 15.8756L20.0693 13.7667L19.9053 14.018Z" fill="#FFFFFF"/>
<path d="M1.88065 3.09729C1.83101 2.73246 1.49501 2.47695 1.13019 2.52659C0.765358 2.57623 0.509848 2.91223 0.559488 3.27705C0.609129 3.64188 0.945122 3.89739 1.30995 3.84775C1.67478 3.79811 1.93029 3.46212 1.88065 3.09729ZM4.13507 4.47613L1.27506 3.07492L1.16507 3.29942L4.02508 4.70063L4.13507 4.47613Z" fill="#FFFFFF"/>
<path d="M4.79925 17.2613C4.28532 17.301 3.9009 17.7498 3.94063 18.2638C3.98036 18.7777 4.42919 19.1621 4.94312 19.1224C5.45705 19.0827 5.84147 18.6338 5.80174 18.1199C5.76201 17.606 5.31318 17.2216 4.79925 17.2613ZM5.99438 16.4535L4.73276 18.0848L5.00962 18.2989L6.27124 16.6676L5.99438 16.4535Z" fill="#FFFFFF"/>
<circle cx="11.9423" cy="9.40083" r="8.64824" stroke="#FFFFFF" stroke-width="1.18"/>
<path fill-rule="evenodd" clip-rule="evenodd" d="M12.4968 3.36279C10.5212 3.81261 9.65832 5.50931 9.59715 6.47511C9.51024 7.84743 11.0857 8.48604 12.168 8.8015L11.8377 9.9308C10.5791 9.56394 8.48438 8.95093 8.48438 7.01325C8.58204 5.47118 9.96663 3.36279 12.4968 3.36279Z" fill="#FFFFFF"/>
<path fill-rule="evenodd" clip-rule="evenodd" d="M11.4769 15.3614C13.4525 14.9116 14.3154 13.2149 14.3766 12.2491C14.4635 10.8768 12.888 10.2381 11.8057 9.92269L12.136 8.79339C13.3946 9.16024 15.4893 9.77325 15.4893 11.7109C15.3917 13.253 14.0071 15.3614 11.4769 15.3614Z" fill="#FFFFFF"/>
<path fill-rule="evenodd" clip-rule="evenodd" d="M11.2588 5.59409C12.3403 4.0892 14.1885 3.13709 16.0367 3.76994L15.7066 4.52971C14.1519 3.99735 12.5193 4.6545 11.2588 5.59409Z" fill="#FFFFFF"/>
<path d="M15.5632 3.94598C15.6747 3.76797 15.9039 3.70309 16.0931 3.79596C16.2962 3.89567 16.3796 4.14014 16.2794 4.34209L15.4246 6.0649C15.2931 6.32992 14.9612 6.42571 14.7074 6.2719C14.4671 6.12631 14.3925 5.81381 14.5413 5.57638L15.5632 3.94598Z" fill="#FFFFFF"/>
<path fill-rule="evenodd" clip-rule="evenodd" d="M12.7148 13.1305C11.6334 14.6354 9.78511 15.5875 7.93692 14.9547L8.26707 14.1949C9.82178 14.7273 11.4543 14.0701 12.7148 13.1305Z" fill="#FFFFFF"/>
<path d="M8.41046 14.7786C8.2989 14.9566 8.06972 15.0215 7.88056 14.9286C7.67746 14.8289 7.59407 14.5845 7.69427 14.3825L8.54907 12.6597C8.68056 12.3947 9.01242 12.2989 9.26623 12.4527C9.5065 12.5983 9.58113 12.9108 9.43233 13.1482L8.41046 14.7786Z" fill="#FFFFFF"/>
<path fill-rule="evenodd" clip-rule="evenodd" d="M14.8643 3.84491C14.866 3.80664 14.8977 3.77697 14.9352 3.77863C15.0516 3.78379 15.2285 3.80312 15.4124 3.84403C15.5954 3.88472 15.7909 3.948 15.9407 4.04385C16.052 4.1151 16.0659 4.25635 16.0152 4.35985L15.809 4.78057C15.7922 4.81483 15.7513 4.82871 15.7177 4.81158C15.6841 4.79445 15.6705 4.75279 15.6873 4.71853L15.8935 4.29782C15.9213 4.24111 15.9058 4.18529 15.8684 4.16136C15.7381 4.07794 15.5602 4.01888 15.3834 3.97955C15.2076 3.94044 15.0385 3.92205 14.9293 3.91721C14.8918 3.91555 14.8627 3.88318 14.8643 3.84491Z" fill="#FFFFFF"/>
<path fill-rule="evenodd" clip-rule="evenodd" d="M9.10736 14.8785C9.10573 14.9167 9.07399 14.9464 9.03648 14.9448C8.92007 14.9396 8.74316 14.9203 8.55926 14.8794C8.37632 14.8387 8.18079 14.7754 8.031 14.6795C7.91965 14.6083 7.90578 14.467 7.95651 14.3635L8.16273 13.9428C8.17952 13.9086 8.22036 13.8947 8.25394 13.9118C8.28753 13.9289 8.30114 13.9706 8.28435 14.0049L8.07813 14.4256C8.05034 14.4823 8.06585 14.5381 8.10326 14.562C8.23361 14.6454 8.41145 14.7045 8.58824 14.7438C8.76406 14.7829 8.93323 14.8013 9.04238 14.8062C9.0799 14.8078 9.10899 14.8402 9.10736 14.8785Z" fill="#FFFFFF"/>
<path fill-rule="evenodd" clip-rule="evenodd" d="M9.28622 5.45768C9.31938 5.48215 9.32646 5.52891 9.30202 5.56212C9.05233 5.90148 8.91556 6.37998 8.91101 6.87228C8.90646 7.36431 9.03407 7.86139 9.30267 8.23797C9.32661 8.27154 9.31885 8.31819 9.28533 8.34216C9.25181 8.36614 9.20522 8.35836 9.18128 8.3248C8.8905 7.91711 8.75707 7.3872 8.76184 6.8709C8.76661 6.35487 8.90954 5.84371 9.18193 5.47351C9.20636 5.4403 9.25306 5.43321 9.28622 5.45768Z" fill="#FFFFFF"/>
<path fill-rule="evenodd" clip-rule="evenodd" d="M14.6864 13.2657C14.6533 13.2412 14.6462 13.1945 14.6706 13.1613C14.9203 12.8219 15.0571 12.3434 15.0616 11.8511C15.0662 11.3591 14.9386 10.862 14.67 10.4854C14.646 10.4519 14.6538 10.4052 14.6873 10.3812C14.7208 10.3573 14.7674 10.365 14.7914 10.3986C15.0822 10.8063 15.2156 11.3362 15.2108 11.8525C15.206 12.3685 15.0631 12.8797 14.7907 13.2499C14.7663 13.2831 14.7196 13.2902 14.6864 13.2657Z" fill="#FFFFFF"/>
</svg>
