<svg width="18" height="18" viewBox="0 0 18 18" fill="none" xmlns="http://www.w3.org/2000/svg">
<path d="M3.1875 2.625C2.05508 2.625 1.125 3.55508 1.125 4.6875V11.4375C1.125 12.5699 2.05508 13.5 3.1875 13.5H14.8125C15.9449 13.5 16.875 12.5699 16.875 11.4375V4.6875C16.875 3.55508 15.9449 2.625 14.8125 2.625H3.1875ZM3.1875 3.75H14.8125C15.3368 3.75 15.75 4.16317 15.75 4.6875V11.4375C15.75 11.9618 15.3368 12.375 14.8125 12.375H3.1875C2.66317 12.375 2.25 11.9618 2.25 11.4375V4.6875C2.25 4.16317 2.66317 3.75 3.1875 3.75ZM5.8125 14.625C5.73796 14.6239 5.66396 14.6377 5.59479 14.6655C5.52562 14.6933 5.46266 14.7346 5.40958 14.7869C5.3565 14.8392 5.31435 14.9016 5.28557 14.9704C5.2568 15.0392 5.24199 15.113 5.24199 15.1875C5.24199 15.262 5.2568 15.3358 5.28557 15.4046C5.31435 15.4734 5.3565 15.5358 5.40958 15.5881C5.46266 15.6404 5.52562 15.6817 5.59479 15.7095C5.66396 15.7373 5.73796 15.7511 5.8125 15.75H12.1875C12.262 15.7511 12.336 15.7373 12.4052 15.7095C12.4744 15.6817 12.5373 15.6404 12.5904 15.5881C12.6435 15.5358 12.6857 15.4734 12.7144 15.4046C12.7432 15.3358 12.758 15.262 12.758 15.1875C12.758 15.113 12.7432 15.0392 12.7144 14.9704C12.6857 14.9016 12.6435 14.8392 12.5904 14.7869C12.5373 14.7346 12.4744 14.6933 12.4052 14.6655C12.336 14.6377 12.262 14.6239 12.1875 14.625H5.8125Z" fill="white"/>
</svg>
