<svg width="19" height="19" viewBox="0 0 19 19" fill="none" xmlns="http://www.w3.org/2000/svg">
<g opacity="0.56" clip-path="url(#clip0_698_5069)">
<path d="M9.78504 18.1626H8.65536C7.74168 18.1626 6.9983 17.4193 6.9983 16.5056V16.1234C6.60986 15.9993 6.23246 15.8426 5.86989 15.655L5.59905 15.9259C4.94307 16.5826 3.89229 16.5634 3.25536 15.9256L2.45693 15.1272C1.81888 14.4899 1.80052 13.4394 2.45714 12.7835L2.72777 12.5129C2.54014 12.1503 2.38352 11.773 2.25938 11.3845H1.87723C0.963594 11.3845 0.220215 10.6411 0.220215 9.72745V8.59774C0.220215 7.68407 0.963594 6.94072 1.87727 6.94072H2.25942C2.38355 6.55225 2.54018 6.17488 2.7278 5.81231L2.45696 5.5415C1.80073 4.88598 1.81884 3.83544 2.45717 3.19781L3.25568 2.39934C3.89408 1.76006 4.94462 1.7441 5.59933 2.39955L5.86993 2.67015C6.2325 2.48256 6.6099 2.3259 6.99834 2.20177V1.81962C6.99834 0.905941 7.74168 0.162598 8.65539 0.162598H9.78507C10.6987 0.162598 11.4421 0.905941 11.4421 1.81962V2.2018C11.8305 2.3259 12.2079 2.48256 12.5705 2.67019L12.8413 2.39934C13.4973 1.74255 14.5481 1.76182 15.185 2.39959L15.9835 3.19799C16.6215 3.83534 16.6399 4.88577 15.9833 5.54168L15.7126 5.81231C15.9003 6.17488 16.0569 6.55221 16.181 6.94072H16.5632C17.4768 6.94072 18.2202 7.68407 18.2202 8.59774V9.72745C18.2202 10.6411 17.4768 11.3845 16.5632 11.3845H16.181C16.0569 11.7729 15.9003 12.1503 15.7126 12.5129L15.9835 12.7837C16.6397 13.4392 16.6216 14.4898 15.9833 15.1274L15.1848 15.9259C14.5464 16.5652 13.4958 16.5811 12.8411 15.9257L12.5705 15.6551C12.2079 15.8427 11.8305 15.9993 11.4421 16.1235V16.5056C11.4421 17.4193 10.6987 18.1626 9.78504 18.1626ZM6.0462 14.5475C6.54989 14.8454 7.092 15.0704 7.65745 15.2163C7.89032 15.2764 8.05303 15.4864 8.05303 15.7269V16.5056C8.05303 16.8377 8.32327 17.1079 8.65539 17.1079H9.78507C10.1172 17.1079 10.3874 16.8377 10.3874 16.5056V15.7269C10.3874 15.4864 10.5501 15.2764 10.783 15.2163C11.3485 15.0704 11.8906 14.8454 12.3943 14.5475C12.6015 14.4249 12.8654 14.4583 13.0356 14.6285L13.5871 15.1801C13.8249 15.4182 14.2068 15.4126 14.4388 15.1803L15.2378 14.3814C15.4692 14.1503 15.4769 13.7683 15.238 13.5297L14.6862 12.9779C14.516 12.8077 14.4826 12.5438 14.6052 12.3366C14.903 11.833 15.128 11.2909 15.274 10.7254C15.3341 10.4925 15.5441 10.3298 15.7846 10.3298H16.5632C16.8953 10.3298 17.1656 10.0596 17.1656 9.72749V8.59778C17.1656 8.26566 16.8953 7.99545 16.5632 7.99545H15.7846C15.5441 7.99545 15.3341 7.83274 15.274 7.5999C15.128 7.03441 14.903 6.4923 14.6052 5.98866C14.4826 5.78145 14.516 5.51756 14.6862 5.34734L15.2378 4.79577C15.4762 4.55762 15.47 4.17582 15.238 3.94411L14.4391 3.14518C14.2075 2.91329 13.8255 2.90651 13.5874 3.14497L13.0357 3.69675C12.8654 3.86701 12.6015 3.90034 12.3943 3.77779C11.8906 3.47991 11.3485 3.25487 10.7831 3.10894C10.5502 3.04886 10.3875 2.83883 10.3875 2.59833V1.81962C10.3875 1.4875 10.1172 1.21729 9.7851 1.21729H8.65543C8.32331 1.21729 8.05306 1.4875 8.05306 1.81962V2.59826C8.05306 2.83876 7.89036 3.04879 7.65748 3.10887C7.09203 3.2548 6.54992 3.47984 6.04624 3.77771C5.83896 3.90023 5.57511 3.86691 5.40488 3.69668L4.85335 3.14511C4.61555 2.90704 4.23365 2.91255 4.00173 3.14487L3.20273 3.94383C2.97133 4.17495 2.9636 4.55685 3.20252 4.79549L3.7543 5.34727C3.92452 5.51749 3.95785 5.78137 3.83533 5.98859C3.53745 6.49223 3.31245 7.03434 3.16652 7.59983C3.1064 7.83271 2.89638 7.99537 2.65591 7.99537H1.87727C1.54515 7.99541 1.2749 8.26562 1.2749 8.59774V9.72745C1.2749 10.0596 1.54515 10.3298 1.87727 10.3298H2.65587C2.89638 10.3298 3.10637 10.4925 3.16648 10.7253C3.31242 11.2908 3.53745 11.8329 3.8353 12.3366C3.95782 12.5438 3.92449 12.8077 3.75426 12.9779L3.2027 13.5295C2.96427 13.7676 2.97049 14.1494 3.20248 14.3811L4.00141 15.18C4.23298 15.4119 4.61492 15.4187 4.85307 15.1803L5.40481 14.6285C5.53025 14.5031 5.79121 14.3967 6.0462 14.5475Z" fill="white"/>
<path d="M9.22012 13.0804C7.06057 13.0804 5.30371 11.3235 5.30371 9.16396C5.30371 7.00446 7.06057 5.24756 9.22012 5.24756C11.3797 5.24756 13.1365 7.00446 13.1365 9.16396C13.1365 11.3235 11.3797 13.0804 9.22012 13.0804ZM9.22012 6.30225C7.64213 6.30225 6.3584 7.58601 6.3584 9.16396C6.3584 10.7419 7.64216 12.0257 9.22012 12.0257C10.7981 12.0257 12.0818 10.7419 12.0818 9.16396C12.0818 7.58601 10.7981 6.30225 9.22012 6.30225Z" fill="white"/>
</g>
<defs>
<clipPath id="clip0_698_5069">
<rect width="18" height="18" fill="white" transform="translate(0.220215 0.162598)"/>
</clipPath>
</defs>
</svg>
