<svg width="35" height="49" viewBox="0 0 35 49" fill="none" xmlns="http://www.w3.org/2000/svg">
<path fill-rule="evenodd" clip-rule="evenodd" d="M19.1187 0.875732C11.3224 2.65083 7.91735 9.34644 7.67597 13.1577C7.333 18.5732 13.5503 21.0934 17.8212 22.3382L16.5178 26.7947C11.5511 25.347 3.28467 22.9279 3.28467 15.2813C3.67007 9.19594 9.134 0.875732 19.1187 0.875732Z" fill="url(#paint0_linear_51_6388)"/>
<path fill-rule="evenodd" clip-rule="evenodd" d="M15.094 48.2252C22.8902 46.4501 26.2953 39.7545 26.5367 35.9432C26.8797 30.5277 20.6623 28.0076 16.3915 26.7627L17.6948 22.3062C22.6616 23.7539 30.928 26.173 30.928 33.8196C30.5426 39.905 25.0787 48.2252 15.094 48.2252Z" fill="url(#paint1_linear_51_6388)"/>
<path fill-rule="evenodd" clip-rule="evenodd" d="M14.2324 9.679C18.5002 3.74033 25.7939 -0.0169114 33.0873 2.48046L31.7845 5.47869C25.6492 3.37787 19.2067 5.97117 14.2324 9.679Z" fill="#01E5D4"/>
<path d="M31.2186 3.17515C31.6589 2.47269 32.5632 2.21665 33.3097 2.58314C34.1112 2.97663 34.4403 3.94136 34.0449 4.73832L30.6716 11.537C30.1527 12.5828 28.8431 12.9608 27.8415 12.3538C26.8933 11.7793 26.5988 10.5461 27.1861 9.60914L31.2186 3.17515Z" fill="#01E5D4"/>
<path fill-rule="evenodd" clip-rule="evenodd" d="M19.98 39.4213C15.7122 45.36 8.41851 49.1173 1.1251 46.6199L2.42795 43.6217C8.56323 45.7225 15.0057 43.1292 19.98 39.4213Z" fill="#137AEA"/>
<path d="M2.99382 45.9252C2.55355 46.6277 1.64916 46.8837 0.90267 46.5172C0.101185 46.1237 -0.227886 45.159 0.167536 44.362L3.54077 37.5634C4.05966 36.5176 5.36928 36.1396 6.37089 36.7465C7.31907 37.3211 7.61357 38.5543 7.02635 39.4912L2.99382 45.9252Z" fill="#137AEA"/>
<path fill-rule="evenodd" clip-rule="evenodd" d="M28.4651 2.77622C28.4715 2.6252 28.5968 2.5081 28.7448 2.51467C29.2042 2.53504 29.9023 2.61129 30.628 2.77273C31.35 2.93333 32.1216 3.18304 32.7127 3.56128C33.1521 3.84245 33.2068 4.39987 33.0066 4.80832L32.1929 6.46856C32.1266 6.60376 31.9654 6.65856 31.8329 6.59096C31.7003 6.52336 31.6466 6.35896 31.7129 6.22376L32.5267 4.56352C32.6364 4.33974 32.5751 4.11944 32.4275 4.02499C31.9131 3.69582 31.2113 3.46275 30.5137 3.30755C29.8198 3.1532 29.1523 3.08065 28.7215 3.06154C28.5735 3.05498 28.4587 2.92723 28.4651 2.77622Z" fill="white"/>
<path fill-rule="evenodd" clip-rule="evenodd" d="M5.74779 46.3183C5.74135 46.4693 5.61612 46.5864 5.46808 46.5798C5.00873 46.5594 4.31059 46.4832 3.58487 46.3218C2.86293 46.1612 2.09131 45.9114 1.5002 45.5332C1.06079 45.252 1.00605 44.6946 1.20625 44.2862L2.02004 42.6259C2.08631 42.4907 2.24747 42.4359 2.38001 42.5035C2.51255 42.5711 2.56627 42.7355 2.5 42.8707L1.68622 44.531C1.57654 44.7547 1.63776 44.975 1.78536 45.0695C2.29978 45.3987 3.00158 45.6317 3.69921 45.7869C4.39305 45.9413 5.06062 46.0138 5.49139 46.0329C5.63943 46.0395 5.75423 46.1672 5.74779 46.3183Z" fill="white"/>
<path fill-rule="evenodd" clip-rule="evenodd" d="M6.4492 9.14048C6.58007 9.23705 6.60799 9.42156 6.51157 9.55262C5.52622 10.8918 4.98649 12.7801 4.96853 14.7228C4.95057 16.6645 5.45416 18.6261 6.51412 20.1122C6.6086 20.2447 6.57796 20.4288 6.44568 20.5234C6.31341 20.618 6.12958 20.5873 6.0351 20.4548C4.88759 18.846 4.36104 16.7548 4.37988 14.7174C4.39872 12.681 4.96273 10.6639 6.03765 9.20294C6.13407 9.07188 6.31833 9.04392 6.4492 9.14048Z" fill="white"/>
<path fill-rule="evenodd" clip-rule="evenodd" d="M27.7632 39.954C27.6323 39.8574 27.6044 39.6729 27.7008 39.5419C28.6862 38.2027 29.2259 36.3144 29.2439 34.3716C29.2618 32.43 28.7582 30.4683 27.6983 28.9823C27.6038 28.8498 27.6344 28.6657 27.7667 28.5711C27.899 28.4765 28.0828 28.5072 28.1773 28.6396C29.3248 30.2485 29.8514 32.3396 29.8325 34.3771C29.8137 36.4135 29.2497 38.4306 28.1748 39.8915C28.0783 40.0226 27.8941 40.0506 27.7632 39.954Z" fill="white"/>
<defs>
<linearGradient id="paint0_linear_51_6388" x1="3.28467" y1="6.07596" x2="32.707" y2="41.3828" gradientUnits="userSpaceOnUse">
<stop stop-color="#01E5D4"/>
<stop offset="1" stop-color="#137AEA"/>
</linearGradient>
<linearGradient id="paint1_linear_51_6388" x1="3.28467" y1="6.07596" x2="32.707" y2="41.3828" gradientUnits="userSpaceOnUse">
<stop stop-color="#01E5D4"/>
<stop offset="1" stop-color="#137AEA"/>
</linearGradient>
</defs>
</svg>
