<svg width="18" height="18" viewBox="0 0 18 18" fill="none" xmlns="http://www.w3.org/2000/svg">
<path d="M8.19632 7.15192C7.90903 6.60387 7.68099 5.97398 7.5 5.25C6.80357 8.03571 5.41071 9.42857 2.625 10.125C5.41071 10.8214 6.80357 12.2143 7.5 15C8.19643 12.2143 9.58929 10.8214 12.375 10.125C11.5609 9.92148 10.8658 9.65849 10.2722 9.31864M10.125 4.875C11.625 4.5 12.375 3.75 12.75 2.25C13.125 3.75 13.875 4.5 15.375 4.875C13.875 5.25 13.125 6 12.75 7.5C12.375 6 11.625 5.25 10.125 4.875ZM10.5 14.4375C11.25 14.25 11.625 13.875 11.8125 13.125C12 13.875 12.375 14.25 13.125 14.4375C12.375 14.625 12 15 11.8125 15.75C11.625 15 11.25 14.625 10.5 14.4375Z" stroke="white" stroke-width="1.5" stroke-linecap="round" stroke-linejoin="round"/>
</svg>
