<svg width="18" height="18" viewBox="0 0 18 18" fill="none" xmlns="http://www.w3.org/2000/svg">
<path d="M9.74999 6.68999V5.09249L12.75 7.88998L11.565 8.99248L15.72 13.1475C16.1775 12.9 16.4925 12.405 16.4925 11.8425L16.5 4.3425C16.5 3.51 15.825 2.84249 14.9999 2.84249H5.41494L9.3375 6.76501C9.4725 6.73499 9.6075 6.71249 9.74999 6.68999ZM15.915 13.3425L17.415 14.8425H18V13.3425H15.915ZM0.8325 2.07749L1.98749 3.23248C1.6875 3.50251 1.50001 3.89999 1.50001 4.3425V11.8425C1.50001 12.6675 2.16752 13.3425 3.00002 13.3425H0V14.8425H13.5975L15.63 16.875L16.5825 15.9225L1.79251 1.125L0.8325 2.07749ZM6.80249 8.04751L7.99499 9.24001C6.84 9.52502 5.96999 10.125 5.24999 11.0925C5.48251 9.98251 5.94 8.88001 6.80249 8.04751Z" fill="white"/>
</svg>
