<svg width="56" height="56" viewBox="0 0 56 56" fill="none" xmlns="http://www.w3.org/2000/svg">
<g clip-path="url(#clip0_950_7147)">
<path d="M43.75 10.5H12.25C11.7859 10.5 11.3408 10.3156 11.0126 9.98744C10.6844 9.65925 10.5 9.21413 10.5 8.75C10.5 8.28587 10.6844 7.84075 11.0126 7.51256C11.3408 7.18437 11.7859 7 12.25 7H43.75C44.2141 7 44.6592 7.18437 44.9874 7.51256C45.3156 7.84075 45.5 8.28587 45.5 8.75C45.5 9.21413 45.3156 9.65925 44.9874 9.98744C44.6592 10.3156 44.2141 10.5 43.75 10.5Z" fill="white"/>
<path d="M55.2125 30.0475L52.36 28.14C51.3504 27.4636 50.1374 27.1584 48.9278 27.2765C47.7183 27.3946 46.5872 27.9286 45.7275 28.7875L38.5 36.085C38.3373 34.8108 37.7132 33.6405 36.7457 32.7955C35.7782 31.9506 34.5345 31.4897 33.25 31.5C31.7498 31.6963 30.2273 31.3819 28.9275 30.6075C26.1645 28.7656 22.8836 27.8584 19.5668 28.019C16.25 28.1797 13.0721 29.3997 10.5 31.5V29.75C10.5 29.2859 10.3156 28.8407 9.98744 28.5126C9.65925 28.1844 9.21413 28 8.75 28H1.75C1.28587 28 0.840752 28.1844 0.512563 28.5126C0.184374 28.8407 0 29.2859 0 29.75L0 54.25C0 54.7141 0.184374 55.1592 0.512563 55.4874C0.840752 55.8156 1.28587 56 1.75 56H8.75C9.21413 56 9.65925 55.8156 9.98744 55.4874C10.3156 55.1592 10.5 54.7141 10.5 54.25V35.875L13.125 33.8975C15.1276 32.4369 17.5262 31.6181 20.0039 31.5494C22.4817 31.4806 24.922 32.1651 27.0025 33.5125C28.8604 34.6922 31.0598 35.2158 33.25 35C33.7141 35 34.1592 35.1844 34.4874 35.5126C34.8156 35.8408 35 36.2859 35 36.75V38.5H22.75C22.2859 38.5 21.8408 38.6844 21.5126 39.0126C21.1844 39.3408 21 39.7859 21 40.25C21 40.7141 21.1844 41.1592 21.5126 41.4874C21.8408 41.8156 22.2859 42 22.75 42H36.75C37.2133 41.9936 37.6571 41.8123 37.9925 41.4925L48.2125 31.2725C48.4973 30.9859 48.8725 30.8066 49.2744 30.7651C49.6763 30.7236 50.0802 30.8225 50.4175 31.045L51.7475 31.9375L38.15 50.05C37.987 50.2673 37.7756 50.4437 37.5326 50.5652C37.2896 50.6867 37.0217 50.75 36.75 50.75H15.75C15.2859 50.75 14.8408 50.9344 14.5126 51.2626C14.1844 51.5908 14 52.0359 14 52.5C14 52.9641 14.1844 53.4092 14.5126 53.7374C14.8408 54.0656 15.2859 54.25 15.75 54.25H36.75C37.565 54.25 38.3689 54.0602 39.0979 53.6957C39.8269 53.3312 40.461 52.802 40.95 52.15L55.65 32.55C55.7918 32.3592 55.8933 32.1415 55.9482 31.9102C56.0031 31.6789 56.0103 31.4389 55.9693 31.2047C55.9284 30.9705 55.8402 30.7471 55.71 30.5482C55.5799 30.3492 55.4106 30.1789 55.2125 30.0475ZM7 52.5H3.5V31.5H7V52.5ZM40.25 26.25H15.75C14.3576 26.25 13.0223 25.6969 12.0377 24.7123C11.0531 23.7277 10.5 22.3924 10.5 21V5.25C10.5 3.85761 11.0531 2.52226 12.0377 1.53769C13.0223 0.553123 14.3576 0 15.75 0L40.25 0C41.6424 0 42.9777 0.553123 43.9623 1.53769C44.9469 2.52226 45.5 3.85761 45.5 5.25V21C45.5 22.3924 44.9469 23.7277 43.9623 24.7123C42.9777 25.6969 41.6424 26.25 40.25 26.25ZM15.75 3.5C15.2859 3.5 14.8408 3.68437 14.5126 4.01256C14.1844 4.34075 14 4.78587 14 5.25V21C14 21.4641 14.1844 21.9092 14.5126 22.2374C14.8408 22.5656 15.2859 22.75 15.75 22.75H40.25C40.7141 22.75 41.1592 22.5656 41.4874 22.2374C41.8156 21.9092 42 21.4641 42 21V5.25C42 4.78587 41.8156 4.34075 41.4874 4.01256C41.1592 3.68437 40.7141 3.5 40.25 3.5H15.75Z" fill="white"/>
<path d="M22.75 19.25H19.25C18.7859 19.25 18.3408 19.0656 18.0126 18.7374C17.6844 18.4092 17.5 17.9641 17.5 17.5C17.5 17.0359 17.6844 16.5908 18.0126 16.2626C18.3408 15.9344 18.7859 15.75 19.25 15.75H22.75C23.2141 15.75 23.6592 15.9344 23.9874 16.2626C24.3156 16.5908 24.5 17.0359 24.5 17.5C24.5 17.9641 24.3156 18.4092 23.9874 18.7374C23.6592 19.0656 23.2141 19.25 22.75 19.25Z" fill="white"/>
</g>
<defs>
<clipPath id="clip0_950_7147">
<rect width="56" height="56" fill="white"/>
</clipPath>
</defs>
</svg>
