<svg width="18" height="19" viewBox="0 0 18 19" fill="none" xmlns="http://www.w3.org/2000/svg">
<path d="M2 18.5C1.46957 18.5 0.960859 18.2893 0.585786 17.9142C0.210714 17.5391 0 17.0304 0 16.5V2.5C0 1.96957 0.210714 1.46086 0.585786 1.08579C0.960859 0.710714 1.46957 0.5 2 0.5H16C16.5304 0.5 17.0391 0.710714 17.4142 1.08579C17.7893 1.46086 18 1.96957 18 2.5V16.5C18 17.0304 17.7893 17.5391 17.4142 17.9142C17.0391 18.2893 16.5304 18.5 16 18.5H2ZM7.6 13.275C7.72763 13.2759 7.85447 13.255 7.975 13.213C8.09781 13.167 8.20883 13.0943 8.3 13L13.975 7.325C14.0645 7.23723 14.1351 7.13205 14.1824 7.01596C14.2297 6.89987 14.2527 6.77533 14.25 6.65C14.2504 6.51902 14.2241 6.38933 14.1725 6.26894C14.1209 6.14855 14.0452 6.04001 13.95 5.95C13.7598 5.77315 13.5097 5.67485 13.25 5.67485C12.9903 5.67485 12.7402 5.77315 12.55 5.95L7.975 10.9L5.425 8.721C5.33723 8.6315 5.23205 8.56093 5.11596 8.51364C4.99987 8.46634 4.87533 8.44332 4.75 8.446C4.61902 8.44555 4.48933 8.47194 4.36894 8.52353C4.24855 8.57513 4.14001 8.65084 4.05 8.746C3.87315 8.9362 3.77485 9.18629 3.77485 9.446C3.77485 9.70571 3.87315 9.9558 4.05 10.146L6.9 13C6.99117 13.0943 7.10219 13.167 7.225 13.213C7.34553 13.255 7.47237 13.2759 7.6 13.275Z" fill="url(#paint0_linear_479_5531)"/>
<defs>
<linearGradient id="paint0_linear_479_5531" x1="9" y1="0.5" x2="9" y2="18.5" gradientUnits="userSpaceOnUse">
<stop stop-color="#01E5D4"/>
<stop offset="0.83" stop-color="#137AEA"/>
</linearGradient>
</defs>
</svg>
