<svg width="148" height="114" viewBox="0 0 148 114" fill="none" xmlns="http://www.w3.org/2000/svg">
<g clip-path="url(#clip0_2978_10066)">
<path d="M119.353 46.3639C117.858 23.0152 101.765 0.5 72.25 0.5C45.2545 0.5 24.4365 20.7447 23.334 47.7622C8.564 52.3988 0.5 68.3459 0.5 79.9531C0.5 97.8248 15.221 113.5 32 113.5H54.75C55.2141 113.5 55.6592 113.314 55.9874 112.983C56.3156 112.652 56.5 112.203 56.5 111.734C56.5 111.266 56.3156 110.817 55.9874 110.486C55.6592 110.155 55.2141 109.969 54.75 109.969H32C17.083 109.969 4 95.9426 4 79.9531C4 69.1793 13.359 49.9375 32 49.9375H37.25C37.7141 49.9375 38.1592 49.7515 38.4874 49.4204C38.8156 49.0892 39 48.6401 39 48.1719C39 47.7036 38.8156 47.2545 38.4874 46.9234C38.1592 46.5923 37.7141 46.4062 37.25 46.4062H32C30.2185 46.4062 28.535 46.6075 26.8935 46.8971C28.2655 25.7449 44.201 4.03125 72.25 4.03125C102.308 4.03125 116 27.8283 116 49.9375V55.2344C116 55.7026 116.184 56.1517 116.513 56.4829C116.841 56.814 117.286 57 117.75 57C118.214 57 118.659 56.814 118.987 56.4829C119.316 56.1517 119.5 55.7026 119.5 55.2344V49.9057C130.066 51.0746 144 62.5158 144 79.9531C144 93.4637 131.081 109.969 116 109.969H89.75C78.417 109.969 74 105.512 74 94.0781V45.64L88.273 60.0122C88.4342 60.181 88.6271 60.3158 88.8405 60.4086C89.0539 60.5014 89.2834 60.5505 89.5158 60.5528C89.7481 60.5552 89.9786 60.5108 90.1938 60.4224C90.409 60.3339 90.6046 60.2031 90.7691 60.0375C90.9336 59.872 91.0638 59.6751 91.1521 59.4582C91.2404 59.2413 91.285 59.0089 91.2834 58.7745C91.2817 58.5401 91.2337 58.3083 91.1423 58.0928C91.0509 57.8772 90.9179 57.6822 90.751 57.5191L75.1375 41.798C73.0585 39.7075 71.445 39.7075 69.3695 41.798L53.756 57.5191C53.4372 57.8521 53.2608 58.2981 53.2648 58.761C53.2688 59.224 53.4529 59.6668 53.7773 59.9942C54.1018 60.3215 54.5407 60.5072 54.9995 60.5113C55.4584 60.5153 55.9004 60.3373 56.2305 60.0157L70.5 45.64V94.0781C70.5 107.511 76.436 113.5 89.75 113.5H116C132.965 113.5 147.5 95.0527 147.5 79.9531C147.5 61.7072 132.719 47.4374 119.353 46.3639Z" fill="#2D2D2D"/>
</g>
<defs>
<clipPath id="clip0_2978_10066">
<rect width="147" height="113" fill="white" transform="translate(0.5 0.5)"/>
</clipPath>
</defs>
</svg>
