<svg width="13" height="15" viewBox="0 0 13 15" fill="none" xmlns="http://www.w3.org/2000/svg">
<path d="M4.92224 0.743896H7.92224C8.12933 0.743896 8.29724 0.575989 8.29724 0.368896C8.29724 0.161804 8.12933 -0.00610352 7.92224 -0.00610352H4.92224C4.71515 -0.00610352 4.54724 0.161804 4.54724 0.368896C4.54724 0.575989 4.71515 0.743896 4.92224 0.743896ZM10.9173 4.27898L11.9373 3.25899C12.0777 3.11369 12.0777 2.8833 11.9373 2.73796C11.7935 2.589 11.5561 2.58488 11.4071 2.72876L10.3871 3.74875C9.32941 2.81505 7.94408 2.2439 6.42224 2.2439C4.90041 2.2439 3.51508 2.81505 2.45732 3.74879L1.43733 2.72881C1.29204 2.58841 1.06165 2.58841 0.916306 2.72881C0.767349 2.87268 0.763229 3.11008 0.907104 3.25903L1.92709 4.27902C0.993393 5.33673 0.422241 6.72206 0.422241 8.2439C0.422241 11.5576 3.10854 14.2439 6.42224 14.2439C9.73439 14.2401 12.4184 11.556 12.4222 8.2439C12.4222 6.72206 11.8511 5.33673 10.9173 4.27898ZM6.42224 13.4939C3.52277 13.4939 1.17224 11.1434 1.17224 8.2439C1.17224 6.79956 1.75603 5.49187 2.69989 4.54265C2.70364 4.53917 2.70882 4.53789 2.71243 4.53427C2.71614 4.53061 2.71724 4.52557 2.72072 4.52177C3.66994 3.57773 4.97772 2.9939 6.42224 2.9939C7.86974 2.99564 9.17999 3.58253 10.1295 4.53056C10.1316 4.53262 10.1335 4.53455 10.1356 4.53661C11.0836 5.48615 11.6705 6.7964 11.6722 8.2439C11.6722 11.1434 9.32172 13.4939 6.42224 13.4939ZM6.79724 7.18774V5.6189C6.79724 5.4118 6.62933 5.2439 6.42224 5.2439C6.21515 5.2439 6.04724 5.4118 6.04724 5.6189V7.18774C5.61131 7.3427 5.29724 7.75478 5.29724 8.2439C5.29724 8.86522 5.80092 9.3689 6.42224 9.3689C7.04356 9.3689 7.54724 8.86522 7.54724 8.2439C7.54724 7.75478 7.23317 7.3427 6.79724 7.18774Z" fill="white"/>
</svg>
