<svg width="74" height="74" viewBox="0 0 74 74" fill="none" xmlns="http://www.w3.org/2000/svg">
<g clip-path="url(#clip0_8_16013)">
<rect width="74" height="74" rx="14" fill="#111111"/>
<path d="M27.4372 26.375C24.9071 26.375 22.833 28.449 22.833 30.9792V43.0208C22.833 45.551 24.9071 47.625 27.4372 47.625H39.4788C42.009 47.625 44.083 45.551 44.083 43.0208V42.0649L49.5574 45.3492C49.7186 45.4459 49.9027 45.498 50.0907 45.5003C50.2787 45.5026 50.464 45.455 50.6276 45.3623C50.7912 45.2696 50.9273 45.1352 51.0219 44.9727C51.1166 44.8102 51.1664 44.6255 51.1663 44.4375V29.5625C51.1664 29.4203 51.1379 29.2795 51.0825 29.1484C51.0271 29.0174 50.946 28.8988 50.8439 28.7998C50.7419 28.7007 50.621 28.6231 50.4884 28.5716C50.3558 28.5201 50.2142 28.4958 50.072 28.5C49.8904 28.5054 49.7132 28.5574 49.5574 28.6508L44.083 31.9351V30.9792C44.083 28.449 42.009 26.375 39.4788 26.375H27.4372ZM27.4372 28.5H39.4788C40.8601 28.5 41.958 29.5979 41.958 30.9792V33.7793V40.175V43.0208C41.958 44.4021 40.8601 45.5 39.4788 45.5H27.4372C26.0559 45.5 24.958 44.4021 24.958 43.0208V30.9792C24.958 29.5979 26.0559 28.5 27.4372 28.5ZM49.0413 31.4399V42.5601L44.083 39.5857V34.4143L49.0413 31.4399Z" fill="url(#paint0_linear_8_16013)"/>
<line x1="23" y1="23" x2="51" y2="51" stroke="#137EEA" stroke-width="4"/>
</g>
<rect x="0.5" y="0.5" width="73" height="73" rx="13.5" stroke="#147BEA"/>
<defs>
<linearGradient id="paint0_linear_8_16013" x1="36.9997" y1="26.375" x2="36.9997" y2="47.625" gradientUnits="userSpaceOnUse">
<stop stop-color="#01E5D4"/>
<stop offset="0.83" stop-color="#137AEA"/>
</linearGradient>
<clipPath id="clip0_8_16013">
<rect width="74" height="74" rx="14" fill="white"/>
</clipPath>
</defs>
</svg>
