<svg width="20" height="12" viewBox="0 0 20 12" fill="none" xmlns="http://www.w3.org/2000/svg">
<path d="M18.4909 1.97597C18.5025 1.97083 18.5096 1.96836 18.5124 1.96743L18.5298 1.96446L18.5528 1.95905C18.9045 1.87616 19.25 2.1499 19.25 2.52514V9.43017C19.25 9.53418 19.2241 9.63308 19.1702 9.73449C18.9953 10.0312 18.6701 10.1009 18.4159 9.94868L18.4159 9.94865L18.4095 9.94493L15.3452 8.151V3.82526L18.3895 2.03166L18.3895 2.03176L18.4006 2.02497C18.4377 2.00226 18.4676 1.98632 18.4909 1.97597ZM2.18818 0.75H11.3129C12.0923 0.75 12.7511 1.38746 12.7511 2.23464V9.76536C12.7511 10.5951 12.0874 11.25 11.3129 11.25H2.18818C1.41367 11.25 0.75 10.5951 0.75 9.76536V2.23464C0.75 1.40487 1.41367 0.75 2.18818 0.75Z" stroke="white" stroke-width="1.5"/>
</svg>
