<svg width="33" height="32" viewBox="0 0 33 32" fill="none" xmlns="http://www.w3.org/2000/svg">
<path d="M27.8337 20.0026H5.16699C4.63656 20.0026 4.12785 19.7919 3.75278 19.4168C3.37771 19.0417 3.16699 18.533 3.16699 18.0026V17.3359C3.16699 16.8055 3.37771 16.2968 3.75278 15.9217C4.12785 15.5467 4.63656 15.3359 5.16699 15.3359H27.8337C28.3641 15.3359 28.8728 15.5467 29.2479 15.9217C29.6229 16.2968 29.8337 16.8055 29.8337 17.3359V18.0026C29.8337 18.533 29.6229 19.0417 29.2479 19.4168C28.8728 19.7919 28.3641 20.0026 27.8337 20.0026ZM5.16699 16.6693C4.99018 16.6693 4.82061 16.7395 4.69559 16.8645C4.57056 16.9896 4.50033 17.1591 4.50033 17.3359V18.0026C4.50033 18.1794 4.57056 18.349 4.69559 18.474C4.82061 18.599 4.99018 18.6693 5.16699 18.6693H27.8337C28.0105 18.6693 28.18 18.599 28.3051 18.474C28.4301 18.349 28.5003 18.1794 28.5003 18.0026V17.3359C28.5003 17.1591 28.4301 16.9896 28.3051 16.8645C28.18 16.7395 28.0105 16.6693 27.8337 16.6693H5.16699ZM27.8337 22.6693H5.16699C4.99018 22.6693 4.82061 22.599 4.69559 22.474C4.57056 22.349 4.50033 22.1794 4.50033 22.0026C4.50033 21.8258 4.57056 21.6562 4.69559 21.5312C4.82061 21.4062 4.99018 21.3359 5.16699 21.3359H27.8337C28.0105 21.3359 28.18 21.4062 28.3051 21.5312C28.4301 21.6562 28.5003 21.8258 28.5003 22.0026C28.5003 22.1794 28.4301 22.349 28.3051 22.474C28.18 22.599 28.0105 22.6693 27.8337 22.6693Z" fill="white"/>
<path d="M5.16667 24.668C4.98986 24.668 4.82029 24.5977 4.69526 24.4727C4.57024 24.3477 4.5 24.1781 4.5 24.0013V19.3346C4.5 19.1578 4.57024 18.9883 4.69526 18.8632C4.82029 18.7382 4.98986 18.668 5.16667 18.668C5.34348 18.668 5.51305 18.7382 5.63807 18.8632C5.7631 18.9883 5.83333 19.1578 5.83333 19.3346V24.0013C5.83333 24.1781 5.7631 24.3477 5.63807 24.4727C5.51305 24.5977 5.34348 24.668 5.16667 24.668ZM27.8333 24.668C27.6565 24.668 27.487 24.5977 27.3619 24.4727C27.2369 24.3477 27.1667 24.1781 27.1667 24.0013V19.3346C27.1667 19.1578 27.2369 18.9883 27.3619 18.8632C27.487 18.7382 27.6565 18.668 27.8333 18.668C28.0101 18.668 28.1797 18.7382 28.3047 18.8632C28.4298 18.9883 28.5 19.1578 28.5 19.3346V24.0013C28.5 24.1781 28.4298 24.3477 28.3047 24.4727C28.1797 24.5977 28.0101 24.668 27.8333 24.668ZM20.5 16.668H12.5C12.3232 16.668 12.1536 16.5977 12.0286 16.4727C11.9036 16.3477 11.8333 16.1781 11.8333 16.0013V11.3346C11.8333 10.097 12.325 8.90997 13.2002 8.0348C14.0753 7.15963 15.2623 6.66797 16.5 6.66797C17.7377 6.66797 18.9247 7.15963 19.7998 8.0348C20.675 8.90997 21.1667 10.097 21.1667 11.3346V16.0013C21.1667 16.1781 21.0964 16.3477 20.9714 16.4727C20.8464 16.5977 20.6768 16.668 20.5 16.668ZM13.1667 15.3346H19.8333V11.3346C19.8333 10.4506 19.4821 9.60273 18.857 8.97761C18.2319 8.35249 17.3841 8.0013 16.5 8.0013C15.6159 8.0013 14.7681 8.35249 14.143 8.97761C13.5179 9.60273 13.1667 10.4506 13.1667 11.3346V15.3346Z" fill="white"/>
<path d="M28.5007 16.668H20.5007C20.3238 16.668 20.1543 16.5977 20.0292 16.4727C19.9042 16.3477 19.834 16.1781 19.834 16.0013V11.3346C19.834 10.097 20.3257 8.90997 21.2008 8.0348C22.076 7.15963 23.263 6.66797 24.5007 6.66797C25.7383 6.66797 26.9253 7.15963 27.8005 8.0348C28.6757 8.90997 29.1673 10.097 29.1673 11.3346V16.0013C29.1673 16.1781 29.0971 16.3477 28.9721 16.4727C28.847 16.5977 28.6775 16.668 28.5007 16.668ZM21.1673 15.3346H27.834V11.3346C27.834 10.4506 27.4828 9.60273 26.8577 8.97761C26.2326 8.35249 25.3847 8.0013 24.5007 8.0013C23.6166 8.0013 22.7688 8.35249 22.1436 8.97761C21.5185 9.60273 21.1673 10.4506 21.1673 11.3346V15.3346ZM12.5007 16.668H4.50065C4.32384 16.668 4.15427 16.5977 4.02925 16.4727C3.90422 16.3477 3.83398 16.1781 3.83398 16.0013V11.3346C3.83398 10.097 4.32565 8.90997 5.20082 8.0348C6.07599 7.15963 7.26297 6.66797 8.50065 6.66797C9.73833 6.66797 10.9253 7.15963 11.8005 8.0348C12.6757 8.90997 13.1673 10.097 13.1673 11.3346V16.0013C13.1673 16.1781 13.0971 16.3477 12.9721 16.4727C12.847 16.5977 12.6775 16.668 12.5007 16.668ZM5.16732 15.3346H11.834V11.3346C11.834 10.4506 11.4828 9.60273 10.8577 8.97761C10.2326 8.35249 9.38471 8.0013 8.50065 8.0013C7.6166 8.0013 6.76875 8.35249 6.14363 8.97761C5.51851 9.60273 5.16732 10.4506 5.16732 11.3346V15.3346Z" fill="white"/>
<path d="M9.83398 12.0013H7.16732C6.99051 12.0013 6.82094 11.9311 6.69591 11.806C6.57089 11.681 6.50065 11.5114 6.50065 11.3346C6.50065 11.1578 6.57089 10.9883 6.69591 10.8632C6.82094 10.7382 6.99051 10.668 7.16732 10.668H9.83398C10.0108 10.668 10.1804 10.7382 10.3054 10.8632C10.4304 10.9883 10.5007 11.1578 10.5007 11.3346C10.5007 11.5114 10.4304 11.681 10.3054 11.806C10.1804 11.9311 10.0108 12.0013 9.83398 12.0013ZM9.83398 14.0013H7.16732C6.99051 14.0013 6.82094 13.9311 6.69591 13.806C6.57089 13.681 6.50065 13.5114 6.50065 13.3346C6.50065 13.1578 6.57089 12.9883 6.69591 12.8632C6.82094 12.7382 6.99051 12.668 7.16732 12.668H9.83398C10.0108 12.668 10.1804 12.7382 10.3054 12.8632C10.4304 12.9883 10.5007 13.1578 10.5007 13.3346C10.5007 13.5114 10.4304 13.681 10.3054 13.806C10.1804 13.9311 10.0108 14.0013 9.83398 14.0013ZM17.834 12.0013H15.1673C14.9905 12.0013 14.8209 11.9311 14.6959 11.806C14.5709 11.681 14.5007 11.5114 14.5007 11.3346C14.5007 11.1578 14.5709 10.9883 14.6959 10.8632C14.8209 10.7382 14.9905 10.668 15.1673 10.668H17.834C18.0108 10.668 18.1804 10.7382 18.3054 10.8632C18.4304 10.9883 18.5007 11.1578 18.5007 11.3346C18.5007 11.5114 18.4304 11.681 18.3054 11.806C18.1804 11.9311 18.0108 12.0013 17.834 12.0013ZM17.834 14.0013H15.1673C14.9905 14.0013 14.8209 13.9311 14.6959 13.806C14.5709 13.681 14.5007 13.5114 14.5007 13.3346C14.5007 13.1578 14.5709 12.9883 14.6959 12.8632C14.8209 12.7382 14.9905 12.668 15.1673 12.668H17.834C18.0108 12.668 18.1804 12.7382 18.3054 12.8632C18.4304 12.9883 18.5007 13.1578 18.5007 13.3346C18.5007 13.5114 18.4304 13.681 18.3054 13.806C18.1804 13.9311 18.0108 14.0013 17.834 14.0013ZM25.834 12.0013H23.1673C22.9905 12.0013 22.8209 11.9311 22.6959 11.806C22.5709 11.681 22.5007 11.5114 22.5007 11.3346C22.5007 11.1578 22.5709 10.9883 22.6959 10.8632C22.8209 10.7382 22.9905 10.668 23.1673 10.668H25.834C26.0108 10.668 26.1804 10.7382 26.3054 10.8632C26.4304 10.9883 26.5007 11.1578 26.5007 11.3346C26.5007 11.5114 26.4304 11.681 26.3054 11.806C26.1804 11.9311 26.0108 12.0013 25.834 12.0013ZM25.834 14.0013H23.1673C22.9905 14.0013 22.8209 13.9311 22.6959 13.806C22.5709 13.681 22.5007 13.5114 22.5007 13.3346C22.5007 13.1578 22.5709 12.9883 22.6959 12.8632C22.8209 12.7382 22.9905 12.668 23.1673 12.668H25.834C26.0108 12.668 26.1804 12.7382 26.3054 12.8632C26.4304 12.9883 26.5007 13.1578 26.5007 13.3346C26.5007 13.5114 26.4304 13.681 26.3054 13.806C26.1804 13.9311 26.0108 14.0013 25.834 14.0013ZM5.83398 25.3346H4.50065C4.32384 25.3346 4.15427 25.2644 4.02925 25.1394C3.90422 25.0143 3.83398 24.8448 3.83398 24.668C3.83398 24.4912 3.90422 24.3216 4.02925 24.1966C4.15427 24.0715 4.32384 24.0013 4.50065 24.0013H5.83398C6.0108 24.0013 6.18036 24.0715 6.30539 24.1966C6.43041 24.3216 6.50065 24.4912 6.50065 24.668C6.50065 24.8448 6.43041 25.0143 6.30539 25.1394C6.18036 25.2644 6.0108 25.3346 5.83398 25.3346ZM28.5007 25.3346H27.1673C26.9905 25.3346 26.8209 25.2644 26.6959 25.1394C26.5709 25.0143 26.5007 24.8448 26.5007 24.668C26.5007 24.4912 26.5709 24.3216 26.6959 24.1966C26.8209 24.0715 26.9905 24.0013 27.1673 24.0013H28.5007C28.6775 24.0013 28.847 24.0715 28.9721 24.1966C29.0971 24.3216 29.1673 24.4912 29.1673 24.668C29.1673 24.8448 29.0971 25.0143 28.9721 25.1394C28.847 25.2644 28.6775 25.3346 28.5007 25.3346ZM12.5007 18.0013C12.3238 18.0013 12.1543 17.9311 12.0292 17.806C11.9042 17.681 11.834 17.5114 11.834 17.3346V16.0013C11.834 15.8245 11.9042 15.6549 12.0292 15.5299C12.1543 15.4049 12.3238 15.3346 12.5007 15.3346C12.6775 15.3346 12.847 15.4049 12.9721 15.5299C13.0971 15.6549 13.1673 15.8245 13.1673 16.0013V17.3346C13.1673 17.5114 13.0971 17.681 12.9721 17.806C12.847 17.9311 12.6775 18.0013 12.5007 18.0013ZM20.5007 18.0013C20.3238 18.0013 20.1543 17.9311 20.0292 17.806C19.9042 17.681 19.834 17.5114 19.834 17.3346V16.0013C19.834 15.8245 19.9042 15.6549 20.0292 15.5299C20.1543 15.4049 20.3238 15.3346 20.5007 15.3346C20.6775 15.3346 20.847 15.4049 20.9721 15.5299C21.0971 15.6549 21.1673 15.8245 21.1673 16.0013V17.3346C21.1673 17.5114 21.0971 17.681 20.9721 17.806C20.847 17.9311 20.6775 18.0013 20.5007 18.0013Z" fill="white"/>
</svg>
