<svg width="32" height="32" viewBox="0 0 32 32" fill="none" xmlns="http://www.w3.org/2000/svg">
<path d="M27.3337 19.9987H4.66699C4.13656 19.9987 3.62785 19.788 3.25278 19.4129C2.87771 19.0378 2.66699 18.5291 2.66699 17.9987V17.332C2.66699 16.8016 2.87771 16.2929 3.25278 15.9178C3.62785 15.5427 4.13656 15.332 4.66699 15.332H27.3337C27.8641 15.332 28.3728 15.5427 28.7479 15.9178C29.1229 16.2929 29.3337 16.8016 29.3337 17.332V17.9987C29.3337 18.5291 29.1229 19.0378 28.7479 19.4129C28.3728 19.788 27.8641 19.9987 27.3337 19.9987ZM4.66699 16.6654C4.49018 16.6654 4.32061 16.7356 4.19559 16.8606C4.07056 16.9857 4.00033 17.1552 4.00033 17.332V17.9987C4.00033 18.1755 4.07056 18.3451 4.19559 18.4701C4.32061 18.5951 4.49018 18.6654 4.66699 18.6654H27.3337C27.5105 18.6654 27.68 18.5951 27.8051 18.4701C27.9301 18.3451 28.0003 18.1755 28.0003 17.9987V17.332C28.0003 17.1552 27.9301 16.9857 27.8051 16.8606C27.68 16.7356 27.5105 16.6654 27.3337 16.6654H4.66699ZM27.3337 22.6654H4.66699C4.49018 22.6654 4.32061 22.5951 4.19559 22.4701C4.07056 22.3451 4.00033 22.1755 4.00033 21.9987C4.00033 21.8219 4.07056 21.6523 4.19559 21.5273C4.32061 21.4023 4.49018 21.332 4.66699 21.332H27.3337C27.5105 21.332 27.68 21.4023 27.8051 21.5273C27.9301 21.6523 28.0003 21.8219 28.0003 21.9987C28.0003 22.1755 27.9301 22.3451 27.8051 22.4701C27.68 22.5951 27.5105 22.6654 27.3337 22.6654Z" fill="url(#paint0_linear_1302_11320)"/>
<path d="M4.66667 24.666C4.48986 24.666 4.32029 24.5958 4.19526 24.4708C4.07024 24.3457 4 24.1762 4 23.9993V19.3327C4 19.1559 4.07024 18.9863 4.19526 18.8613C4.32029 18.7363 4.48986 18.666 4.66667 18.666C4.84348 18.666 5.01305 18.7363 5.13807 18.8613C5.2631 18.9863 5.33333 19.1559 5.33333 19.3327V23.9993C5.33333 24.1762 5.2631 24.3457 5.13807 24.4708C5.01305 24.5958 4.84348 24.666 4.66667 24.666ZM27.3333 24.666C27.1565 24.666 26.987 24.5958 26.8619 24.4708C26.7369 24.3457 26.6667 24.1762 26.6667 23.9993V19.3327C26.6667 19.1559 26.7369 18.9863 26.8619 18.8613C26.987 18.7363 27.1565 18.666 27.3333 18.666C27.5101 18.666 27.6797 18.7363 27.8047 18.8613C27.9298 18.9863 28 19.1559 28 19.3327V23.9993C28 24.1762 27.9298 24.3457 27.8047 24.4708C27.6797 24.5958 27.5101 24.666 27.3333 24.666ZM20 16.666H12C11.8232 16.666 11.6536 16.5958 11.5286 16.4708C11.4036 16.3457 11.3333 16.1762 11.3333 15.9993V11.3327C11.3333 10.095 11.825 8.90802 12.7002 8.03285C13.5753 7.15768 14.7623 6.66602 16 6.66602C17.2377 6.66602 18.4247 7.15768 19.2998 8.03285C20.175 8.90802 20.6667 10.095 20.6667 11.3327V15.9993C20.6667 16.1762 20.5964 16.3457 20.4714 16.4708C20.3464 16.5958 20.1768 16.666 20 16.666ZM12.6667 15.3327H19.3333V11.3327C19.3333 10.4486 18.9821 9.60078 18.357 8.97566C17.7319 8.35054 16.8841 7.99935 16 7.99935C15.1159 7.99935 14.2681 8.35054 13.643 8.97566C13.0179 9.60078 12.6667 10.4486 12.6667 11.3327V15.3327Z" fill="url(#paint1_linear_1302_11320)"/>
<path d="M28.0007 16.666H20.0007C19.8238 16.666 19.6543 16.5958 19.5292 16.4708C19.4042 16.3457 19.334 16.1762 19.334 15.9993V11.3327C19.334 10.095 19.8257 8.90802 20.7008 8.03285C21.576 7.15768 22.763 6.66602 24.0007 6.66602C25.2383 6.66602 26.4253 7.15768 27.3005 8.03285C28.1757 8.90802 28.6673 10.095 28.6673 11.3327V15.9993C28.6673 16.1762 28.5971 16.3457 28.4721 16.4708C28.347 16.5958 28.1775 16.666 28.0007 16.666ZM20.6673 15.3327H27.334V11.3327C27.334 10.4486 26.9828 9.60078 26.3577 8.97566C25.7326 8.35054 24.8847 7.99935 24.0007 7.99935C23.1166 7.99935 22.2688 8.35054 21.6436 8.97566C21.0185 9.60078 20.6673 10.4486 20.6673 11.3327V15.3327ZM12.0007 16.666H4.00065C3.82384 16.666 3.65427 16.5958 3.52925 16.4708C3.40422 16.3457 3.33398 16.1762 3.33398 15.9993V11.3327C3.33398 10.095 3.82565 8.90802 4.70082 8.03285C5.57599 7.15768 6.76297 6.66602 8.00065 6.66602C9.23833 6.66602 10.4253 7.15768 11.3005 8.03285C12.1757 8.90802 12.6673 10.095 12.6673 11.3327V15.9993C12.6673 16.1762 12.5971 16.3457 12.4721 16.4708C12.347 16.5958 12.1775 16.666 12.0007 16.666ZM4.66732 15.3327H11.334V11.3327C11.334 10.4486 10.9828 9.60078 10.3577 8.97566C9.73255 8.35054 8.88471 7.99935 8.00065 7.99935C7.1166 7.99935 6.26875 8.35054 5.64363 8.97566C5.01851 9.60078 4.66732 10.4486 4.66732 11.3327V15.3327Z" fill="url(#paint2_linear_1302_11320)"/>
<path d="M9.33398 11.9993H6.66732C6.49051 11.9993 6.32094 11.9291 6.19591 11.8041C6.07089 11.6791 6.00065 11.5095 6.00065 11.3327C6.00065 11.1559 6.07089 10.9863 6.19591 10.8613C6.32094 10.7363 6.49051 10.666 6.66732 10.666H9.33398C9.5108 10.666 9.68036 10.7363 9.80539 10.8613C9.93041 10.9863 10.0007 11.1559 10.0007 11.3327C10.0007 11.5095 9.93041 11.6791 9.80539 11.8041C9.68036 11.9291 9.5108 11.9993 9.33398 11.9993ZM9.33398 13.9993H6.66732C6.49051 13.9993 6.32094 13.9291 6.19591 13.8041C6.07089 13.6791 6.00065 13.5095 6.00065 13.3327C6.00065 13.1559 6.07089 12.9863 6.19591 12.8613C6.32094 12.7363 6.49051 12.666 6.66732 12.666H9.33398C9.5108 12.666 9.68036 12.7363 9.80539 12.8613C9.93041 12.9863 10.0007 13.1559 10.0007 13.3327C10.0007 13.5095 9.93041 13.6791 9.80539 13.8041C9.68036 13.9291 9.5108 13.9993 9.33398 13.9993ZM17.334 11.9993H14.6673C14.4905 11.9993 14.3209 11.9291 14.1959 11.8041C14.0709 11.6791 14.0007 11.5095 14.0007 11.3327C14.0007 11.1559 14.0709 10.9863 14.1959 10.8613C14.3209 10.7363 14.4905 10.666 14.6673 10.666H17.334C17.5108 10.666 17.6804 10.7363 17.8054 10.8613C17.9304 10.9863 18.0007 11.1559 18.0007 11.3327C18.0007 11.5095 17.9304 11.6791 17.8054 11.8041C17.6804 11.9291 17.5108 11.9993 17.334 11.9993ZM17.334 13.9993H14.6673C14.4905 13.9993 14.3209 13.9291 14.1959 13.8041C14.0709 13.6791 14.0007 13.5095 14.0007 13.3327C14.0007 13.1559 14.0709 12.9863 14.1959 12.8613C14.3209 12.7363 14.4905 12.666 14.6673 12.666H17.334C17.5108 12.666 17.6804 12.7363 17.8054 12.8613C17.9304 12.9863 18.0007 13.1559 18.0007 13.3327C18.0007 13.5095 17.9304 13.6791 17.8054 13.8041C17.6804 13.9291 17.5108 13.9993 17.334 13.9993ZM25.334 11.9993H22.6673C22.4905 11.9993 22.3209 11.9291 22.1959 11.8041C22.0709 11.6791 22.0007 11.5095 22.0007 11.3327C22.0007 11.1559 22.0709 10.9863 22.1959 10.8613C22.3209 10.7363 22.4905 10.666 22.6673 10.666H25.334C25.5108 10.666 25.6804 10.7363 25.8054 10.8613C25.9304 10.9863 26.0007 11.1559 26.0007 11.3327C26.0007 11.5095 25.9304 11.6791 25.8054 11.8041C25.6804 11.9291 25.5108 11.9993 25.334 11.9993ZM25.334 13.9993H22.6673C22.4905 13.9993 22.3209 13.9291 22.1959 13.8041C22.0709 13.6791 22.0007 13.5095 22.0007 13.3327C22.0007 13.1559 22.0709 12.9863 22.1959 12.8613C22.3209 12.7363 22.4905 12.666 22.6673 12.666H25.334C25.5108 12.666 25.6804 12.7363 25.8054 12.8613C25.9304 12.9863 26.0007 13.1559 26.0007 13.3327C26.0007 13.5095 25.9304 13.6791 25.8054 13.8041C25.6804 13.9291 25.5108 13.9993 25.334 13.9993ZM5.33398 25.3327H4.00065C3.82384 25.3327 3.65427 25.2624 3.52925 25.1374C3.40422 25.0124 3.33398 24.8428 3.33398 24.666C3.33398 24.4892 3.40422 24.3196 3.52925 24.1946C3.65427 24.0696 3.82384 23.9993 4.00065 23.9993H5.33398C5.5108 23.9993 5.68036 24.0696 5.80539 24.1946C5.93041 24.3196 6.00065 24.4892 6.00065 24.666C6.00065 24.8428 5.93041 25.0124 5.80539 25.1374C5.68036 25.2624 5.5108 25.3327 5.33398 25.3327ZM28.0007 25.3327H26.6673C26.4905 25.3327 26.3209 25.2624 26.1959 25.1374C26.0709 25.0124 26.0007 24.8428 26.0007 24.666C26.0007 24.4892 26.0709 24.3196 26.1959 24.1946C26.3209 24.0696 26.4905 23.9993 26.6673 23.9993H28.0007C28.1775 23.9993 28.347 24.0696 28.4721 24.1946C28.5971 24.3196 28.6673 24.4892 28.6673 24.666C28.6673 24.8428 28.5971 25.0124 28.4721 25.1374C28.347 25.2624 28.1775 25.3327 28.0007 25.3327ZM12.0007 17.9993C11.8238 17.9993 11.6543 17.9291 11.5292 17.8041C11.4042 17.6791 11.334 17.5095 11.334 17.3327V15.9993C11.334 15.8225 11.4042 15.653 11.5292 15.5279C11.6543 15.4029 11.8238 15.3327 12.0007 15.3327C12.1775 15.3327 12.347 15.4029 12.4721 15.5279C12.5971 15.653 12.6673 15.8225 12.6673 15.9993V17.3327C12.6673 17.5095 12.5971 17.6791 12.4721 17.8041C12.347 17.9291 12.1775 17.9993 12.0007 17.9993ZM20.0007 17.9993C19.8238 17.9993 19.6543 17.9291 19.5292 17.8041C19.4042 17.6791 19.334 17.5095 19.334 17.3327V15.9993C19.334 15.8225 19.4042 15.653 19.5292 15.5279C19.6543 15.4029 19.8238 15.3327 20.0007 15.3327C20.1775 15.3327 20.347 15.4029 20.4721 15.5279C20.5971 15.653 20.6673 15.8225 20.6673 15.9993V17.3327C20.6673 17.5095 20.5971 17.6791 20.4721 17.8041C20.347 17.9291 20.1775 17.9993 20.0007 17.9993Z" fill="url(#paint3_linear_1302_11320)"/>
<defs>
<linearGradient id="paint0_linear_1302_11320" x1="16.0003" y1="15.332" x2="16.0003" y2="22.6654" gradientUnits="userSpaceOnUse">
<stop stop-color="#01E5D4"/>
<stop offset="0.83" stop-color="#137AEA"/>
</linearGradient>
<linearGradient id="paint1_linear_1302_11320" x1="16" y1="6.66602" x2="16" y2="24.666" gradientUnits="userSpaceOnUse">
<stop stop-color="#01E5D4"/>
<stop offset="0.83" stop-color="#137AEA"/>
</linearGradient>
<linearGradient id="paint2_linear_1302_11320" x1="16.0007" y1="6.66602" x2="16.0007" y2="16.666" gradientUnits="userSpaceOnUse">
<stop stop-color="#01E5D4"/>
<stop offset="0.83" stop-color="#137AEA"/>
</linearGradient>
<linearGradient id="paint3_linear_1302_11320" x1="16.0007" y1="10.666" x2="16.0007" y2="25.3327" gradientUnits="userSpaceOnUse">
<stop stop-color="#01E5D4"/>
<stop offset="0.83" stop-color="#137AEA"/>
</linearGradient>
</defs>
</svg>
